<svg xmlns="http://www.w3.org/2000/svg" viewBox="0 0 30 30">
  <g>
    <path d="M23.109,25.558l-2.656-1.4A1.425,1.425,0,0,0,19.794,24H18.033V21.5h2.738A1.73,1.73,0,0,0,22.5,19.771V3.229A1.73,1.73,0,0,0,20.771,1.5H9.229A1.731,1.731,0,0,0,7.5,3.229V19.771A1.731,1.731,0,0,0,9.229,21.5h2.737V24H10.218a1.418,1.418,0,0,0-.658.163L6.9,25.557a1.791,1.791,0,0,0,.833,3.377H22.276a1.791,1.791,0,0,0,.833-3.376ZM8.5,19.771V3.229A.73.73,0,0,1,9.229,2.5H20.771a.73.73,0,0,1,.729.729V19.771a.73.73,0,0,1-.729.729H9.229A.73.73,0,0,1,8.5,19.771ZM12.966,21.5h4.067V24H12.966Zm10.077,5.832a.763.763,0,0,1-.767.6H7.732a.792.792,0,0,1-.368-1.493l2.662-1.4A.414.414,0,0,1,10.218,25h9.576a.424.424,0,0,1,.193.048l2.657,1.4A.763.763,0,0,1,23.043,27.332Z" fill="#333"/>
    <path d="M15.991,7.547a1.114,1.114,0,0,0-1-.637h0a1.113,1.113,0,0,0-1,.639L10.654,14.41a1.181,1.181,0,0,0,.061,1.15,1.108,1.108,0,0,0,.942.53h6.685a1.109,1.109,0,0,0,.943-.53,1.184,1.184,0,0,0,.06-1.153Zm2.351,7.513-6.754-.046a.159.159,0,0,1-.007-.154L14.912,8h.154l3.353,6.86C18.456,14.934,18.423,15,18.342,15.06Z" fill="#333"/>
    <path d="M14.988,9.831h0a.5.5,0,0,0-.5.5l0,2.02a.5.5,0,0,0,.5.5h0a.5.5,0,0,0,.5-.5l0-2.02A.5.5,0,0,0,14.988,9.831Z" fill="#333"/>
    <path d="M14.985,13.285a.516.516,0,0,0-.5.518.5.5,0,0,0,1,0v-.035A.485.485,0,0,0,14.985,13.285Z" fill="#333"/>
  </g>
</svg>
