<svg xmlns="http://www.w3.org/2000/svg" viewBox="0 0 30 30">
  <g>
    <polygon points="20.559 10.982 19.466 10.982 19.466 12.145 18.164 12.145 20.296 7.879 19.055 7.879 16.924 12.145 16.924 13.219 19.466 13.219 19.466 14.101 20.559 14.101 20.559 13.219 21.127 13.219 21.127 12.145 20.559 12.145 20.559 10.982"/>
    <path d="M25.7,9.636A1.746,1.746,0,0,0,23.81,7.827a1.769,1.769,0,0,0-1.9,1.818h1.136a.757.757,0,1,1,1.512-.018,1.069,1.069,0,0,1-.323.752l-2.325,2.7V14.1H25.7V13.079h-2.4l1.739-2.019A1.982,1.982,0,0,0,25.7,9.636Z"/>
    <path d="M23.677,5.284h-8.32a5.813,5.813,0,0,0-5.486,7.777H6.324a5.828,5.828,0,1,0,0,11.655h8.319a5.834,5.834,0,0,0,5.828-5.827,5.774,5.774,0,0,0-.342-1.949h3.548a5.828,5.828,0,0,0,0-11.656ZM7.5,20.916V21.9H3.868v-.981L6.1,18.327a1.028,1.028,0,0,0,.31-.721.681.681,0,0,0-.721-.746.681.681,0,0,0-.729.763H3.868a1.7,1.7,0,0,1,1.818-1.742A1.673,1.673,0,0,1,7.5,17.615a1.9,1.9,0,0,1-.637,1.365L5.192,20.916Zm4.718.135h-.545V21.9H10.622v-.846H8.184V20.02l2.044-4.09h1.19L9.374,20.02h1.248V18.905h1.047V20.02h.545ZM17.1,16.97H14.335v1.4h2.354v1.039H14.335v1.45H17.1V21.9H13.17V15.93H17.1Zm6.577-.988h-3.99a5.825,5.825,0,0,0-5-2.918L16.3,8.9V7.879H12.345v2h1.083V8.9h1.643l-1.615,4.159H10.9a4.825,4.825,0,0,1-.414-1.949,4.875,4.875,0,0,1,4.87-4.869h8.32a4.87,4.87,0,0,1,0,9.739Z"/>
  </g>
</svg>
