<svg xmlns="http://www.w3.org/2000/svg" viewBox="0 0 30 30"><line x1="21.491" y1="7.523" x2="19.494" y2="7.523" fill="none" stroke="#231f20" stroke-linecap="round" stroke-linejoin="round"/><line x1="21.491" y1="9.021" x2="19.494" y2="9.021" fill="none" stroke="#231f20" stroke-linecap="round" stroke-linejoin="round"/><line x1="21.491" y1="10.519" x2="19.494" y2="10.519" fill="none" stroke="#231f20" stroke-linecap="round" stroke-linejoin="round"/><path d="M18.331,3.732a5.615,5.615,0,0,1,.726-.048A5.427,5.427,0,0,1,22.9,12.951l1.591,1.593H19.057a5.409,5.409,0,0,1-2.508-.612" fill="none" stroke="#231f20" stroke-linecap="round" stroke-linejoin="round"/><circle cx="6.512" cy="18.969" r="2.459" fill="none" stroke="#231f20" stroke-linecap="round" stroke-linejoin="round"/><path d="M11.505,28.493V25.764a2.736,2.736,0,0,0-2.736-2.736H4.254a2.736,2.736,0,0,0-2.736,2.736V28.5H8.732" fill="none" stroke="#231f20" stroke-linecap="round" stroke-linejoin="round"/><circle cx="23.488" cy="18.969" r="2.459" fill="none" stroke="#231f20" stroke-linecap="round" stroke-linejoin="round"/><path d="M28.482,28.493V25.764a2.736,2.736,0,0,0-2.736-2.736H21.231A2.736,2.736,0,0,0,18.5,25.764V28.5h7.212" fill="none" stroke="#231f20" stroke-linecap="round" stroke-linejoin="round"/><circle cx="6.512" cy="18.969" r="2.459" fill="none" stroke="#231f20" stroke-linecap="round" stroke-linejoin="round"/><path d="M11.505,28.493V25.764a2.736,2.736,0,0,0-2.736-2.736H4.254a2.736,2.736,0,0,0-2.736,2.736V28.5H8.732" fill="none" stroke="#231f20" stroke-linecap="round" stroke-linejoin="round"/><circle cx="23.488" cy="18.969" r="2.459" fill="none" stroke="#231f20" stroke-linecap="round" stroke-linejoin="round"/><path d="M28.482,28.493V25.764a2.736,2.736,0,0,0-2.736-2.736H21.231A2.736,2.736,0,0,0,18.5,25.764V28.5h7.212" fill="none" stroke="#231f20" stroke-linecap="round" stroke-linejoin="round"/><line x1="7.992" y1="6.025" x2="14.075" y2="6.025" fill="none" stroke="#231f20" stroke-linecap="round" stroke-linejoin="round"/><line x1="7.992" y1="8.027" x2="14.075" y2="8.027" fill="none" stroke="#231f20" stroke-linecap="round" stroke-linejoin="round"/><line x1="7.992" y1="10.019" x2="14.075" y2="10.019" fill="none" stroke="#231f20" stroke-linecap="round" stroke-linejoin="round"/><path d="M11.037,1.5a6.518,6.518,0,0,0-4.61,11.13L4.516,14.544h6.521a6.522,6.522,0,1,0,0-13.044Z" fill="none" stroke="#231f20" stroke-linecap="round" stroke-linejoin="round"/></svg>