<svg xmlns="http://www.w3.org/2000/svg" viewBox="0 0 30 30"><path d="M14.259,14.766a.5.5,0,0,1,.511.512v1.366a2.137,2.137,0,0,1-1.329,1.917,4.87,4.87,0,0,1-2.325.551,3.846,3.846,0,0,1-2.852-1.2,4.146,4.146,0,0,1,0-5.81,3.84,3.84,0,0,1,2.852-1.21,3.919,3.919,0,0,1,2.113.606,4.047,4.047,0,0,1,1.487,1.639.515.515,0,0,1,.054.228.522.522,0,0,1-.027.164.512.512,0,0,1-.479.348.511.511,0,0,1-.163-.027.481.481,0,0,1-.3-.256,3.018,3.018,0,0,0-1.116-1.231,2.925,2.925,0,0,0-1.574-.446,2.876,2.876,0,0,0-2.134.9,3.137,3.137,0,0,0,0,4.374,2.873,2.873,0,0,0,2.134.9,4.037,4.037,0,0,0,1.732-.37q.9-.424.9-1.079v-.86h-2.44a.489.489,0,0,1-.359-.147.518.518,0,0,1,0-.723.49.49,0,0,1,.359-.148Z" stroke="#000" stroke-miterlimit="10" stroke-width="0.25"/><path d="M18.813,10.888a4.121,4.121,0,0,1,4.111,4.118,4.111,4.111,0,0,1-4.111,4.106h-1.8a.507.507,0,0,1-.364-.147.491.491,0,0,1-.147-.36V11.4a.493.493,0,0,1,.147-.36.5.5,0,0,1,.364-.153Zm0,7.205A3.092,3.092,0,0,0,21,12.816a3,3,0,0,0-2.189-.9H17.522v6.18Z" stroke="#000" stroke-miterlimit="10" stroke-width="0.25"/><circle cx="15" cy="15" r="11.333" fill="none" stroke="#231f20" stroke-linecap="round" stroke-linejoin="round"/><path d="M6.688,20.122a9.7,9.7,0,0,1-.845-1.731" fill="none" stroke="#231f20" stroke-linecap="round" stroke-linejoin="round"/><path d="M20.247,6.767A9.764,9.764,0,0,1,22.582,21.15" fill="none" stroke="#231f20" stroke-linecap="round" stroke-linejoin="round"/></svg>