<svg xmlns="http://www.w3.org/2000/svg" width="20" height="20" viewBox="0 0 20 20">
    <g id="Carris_Icones_Azul_Carris_Upload_Copy" data-name="Carris / Icones / Azul Carris / Upload Copy">
        <path id="Rectangle_Copy" d="M1.051 19.856a.645.645 0 0 1-.812 0 .681.681 0 0 1 0-.855L19.05.173a.589.589 0 0 1 .833 0 .59.59 0 0 1 0 .834z" fill="#ED1C24" data-name="Rectangle Copy" transform="translate(-.056)"/>
        <path id="Rectangle_Copy_2" d="M.964 19.838a.647.647 0 0 1-.812 0 .679.679 0 0 1 0-.855L18.98.173a.59.59 0 0 1 .834 0 .589.589 0 0 1 0 .833z" fill="#ED1C24" data-name="Rectangle Copy 2" transform="rotate(-90 9.996 9.996)"/>
    </g>
</svg>
