<?xml version="1.0" encoding="UTF-8"?>
<svg id="Layer_1" data-name="Layer 1" xmlns="http://www.w3.org/2000/svg" viewBox="0 0 3949.15 3428.92">
  <defs>
    <style>
      .cls-1 {
        fill: none;
      }

      .cls-2 {
        fill: #616160;
      }
    </style>
  </defs>
  <g>
    <path class="cls-1" d="M2349.63,2425.24c-.25-2.11-.41-4.24-.41-6.41v-267.83c0-146.8-137.9-298.79-368.67-299.01-230.66.23-368.57,152.21-368.57,299.01v267.83c0,2.64-.25,5.22-.62,7.77,107.16,66,233.22,104.12,368.04,104.12s262.59-38.66,370.22-105.48Z"/>
    <path class="cls-1" d="M3506.36,1070.58c0-101.18-82.31-183.49-183.49-183.49s-183.49,82.31-183.49,183.49,82.31,183.49,183.49,183.49,183.49-82.31,183.49-183.49Z"/>
    <path class="cls-1" d="M1980.6,1686.3c98.51,0,178.65-80.14,178.65-178.65s-80.14-178.65-178.65-178.65-178.65,80.14-178.65,178.65,80.14,178.65,178.65,178.65Z"/>
    <path class="cls-1" d="M1979.32,1013.53c29.88,0,54.1,24.22,54.1,54.1s-24.22,54.1-54.1,54.1-54.1-24.22-54.1-54.1,24.22-54.1,54.1-54.1ZM1331.53,1335.56c104.52-137.64,252.92-240.19,417.86-288.76,28.85-8.5,59.22,8.01,67.73,36.92,8.51,28.9-8.02,59.23-36.92,67.74-142.76,42.04-271.25,130.85-361.79,250.08-93.51,123.14-142.94,270.2-142.94,425.27,0,204.5,87.68,388.88,227.39,517.6v-193.4c0-117.99,54.59-225.03,153.7-301.41,53.33-41.1,117.85-71.5,186.7-89.13-89.54-48.83-150.43-143.84-150.43-252.81,0-158.66,129.08-287.74,287.74-287.74s287.74,129.08,287.74,287.74c0,108.97-60.89,203.98-150.44,252.81,68.87,17.63,133.38,48.03,186.71,89.13,99.11,76.38,153.7,183.42,153.7,301.41v191.18c138.32-128.62,225.01-312.05,225.01-515.38,0-313.19-210.15-591.66-511.05-677.18-28.98-8.24-45.79-38.41-37.56-67.38,8.24-28.98,38.42-45.78,67.39-37.56,166.72,47.39,316.92,149.64,422.92,287.93,109.51,142.87,167.39,313.75,167.39,494.2,0,448.3-364.72,813.01-813.01,813.01s-813.01-364.72-813.01-813.01c0-179.1,57.11-348.97,165.14-491.25Z"/>
    <path class="cls-1" d="M809.77,1070.58c0-101.18-82.31-183.49-183.49-183.49s-183.49,82.31-183.49,183.49,82.31,183.49,183.49,183.49,183.49-82.31,183.49-183.49Z"/>
    <path d="M3322.83,1405.64c232.79.23,371.9,154.15,371.9,302.83v217.83h-570.68c-2.74,32.1-6.77,63.95-12.14,95.46h616.9c33.9,0,61.38-27.48,61.38-61.38v-251.91c0-114.98-53.24-219.32-149.92-293.83-56.53-43.56-125.91-74.84-199.67-91.27,95.34-44.57,161.52-141.47,161.23-253.55-.4-153.38-125.75-278.3-279.13-278.21-153.73.1-278.77,125.2-278.77,278.95,0,111.76,66.09,208.32,161.22,252.8-58.67,13.07-114.45,35.67-163.33,66.25,12.31,29.8,23.42,60.21,33.23,91.2,62.16-45.59,146.02-75.09,247.79-75.19ZM3139.38,1070.58c0-101.18,82.31-183.49,183.49-183.49s183.49,82.31,183.49,183.49-82.31,183.49-183.49,183.49-183.49-82.31-183.49-183.49Z"/>
    <path d="M254.43,1926.31v-217.83c0-148.68,139.11-302.61,371.81-302.83,106.15.1,192.74,32.22,255.62,81.17,9.74-31.37,20.85-62.14,33.14-92.3-50.65-33.08-109.23-57.37-171-71.13,95.34-44.57,161.52-141.47,161.23-253.55-.4-153.38-125.75-278.3-279.13-278.2-153.73.1-278.76,125.2-278.76,278.95,0,111.76,66.09,208.32,161.22,252.8-73.74,16.42-143.12,47.7-199.66,91.27-96.68,74.5-149.93,178.85-149.93,293.83v252.92c0,33.34,27.03,60.38,60.38,60.38h627.78c-5.39-31.41-9.49-63.25-12.27-95.46H254.43ZM442.81,1073.14c-1.41-103.2,82.83-187.45,186.03-186.03,98.97,1.36,179.56,81.94,180.91,180.91,1.41,103.2-82.84,187.44-186.03,186.03-98.97-1.36-179.55-81.94-180.91-180.91Z"/>
    <path d="M1979.41,2639.82c448.3,0,813.01-364.72,813.01-813.01,0-180.44-57.88-351.33-167.39-494.2-106-138.28-256.2-240.54-422.92-287.93-28.97-8.22-59.15,8.58-67.39,37.56-8.24,28.98,8.58,59.15,37.56,67.38,300.9,85.52,511.05,363.99,511.05,677.18,0,203.33-86.69,386.76-225.01,515.38v-191.18c0-117.99-54.59-225.03-153.7-301.41-53.33-41.1-117.84-71.49-186.71-89.13,89.54-48.83,150.44-143.84,150.44-252.81,0-158.66-129.08-287.74-287.74-287.74s-287.74,129.08-287.74,287.74c0,108.97,60.89,203.98,150.43,252.81-68.85,17.63-133.36,48.03-186.7,89.13-99.11,76.38-153.7,183.42-153.7,301.41v193.4c-139.71-128.72-227.39-313.1-227.39-517.6,0-155.07,49.43-302.13,142.94-425.27,90.54-119.23,219.02-208.04,361.79-250.08,28.9-8.51,45.43-38.84,36.92-67.74-8.51-28.91-38.89-45.42-67.73-36.92-164.94,48.57-313.34,151.12-417.86,288.76-108.04,142.28-165.14,312.15-165.14,491.25,0,448.3,364.72,813.01,813.01,813.01ZM1801.95,1507.66c0-98.51,80.14-178.65,178.65-178.65s178.65,80.14,178.65,178.65-80.14,178.65-178.65,178.65-178.65-80.14-178.65-178.65ZM1611.98,2418.84v-267.83c0-146.8,137.9-298.79,368.57-299.01,230.77.23,368.67,152.21,368.67,299.01v267.83c0,2.17.16,4.3.41,6.41-107.63,66.83-234.48,105.48-370.22,105.48s-260.89-38.13-368.04-104.12c.36-2.54.62-5.12.62-7.77Z"/>
    <path d="M1979.32,1121.73c29.88,0,54.1-24.22,54.1-54.1s-24.22-54.1-54.1-54.1-54.1,24.22-54.1,54.1,24.22,54.1,54.1,54.1Z"/>
    <path d="M3493.88,3006.51l-53.72-53.72c-10.65-10.65-24.61-15.98-38.57-15.98s-27.92,5.33-38.57,15.98c-21.3,21.3-21.3,55.84,0,77.14l53.72,53.72c6.87,6.87,7.89,15.03,7.89,19.29s-1.03,12.42-7.89,19.29l-167.39,167.38c-5.23,5.23-12.26,7.84-19.28,7.84s-14.06-2.61-19.28-7.84l-381.74-381.74c-6.87-6.87-7.89-15.03-7.89-19.29s1.03-12.42,7.89-19.29l167.39-167.38c5.23-5.23,12.26-7.84,19.28-7.84s14.06,2.61,19.28,7.84l100.41,100.41c10.65,10.65,24.61,15.98,38.57,15.98s27.92-5.33,38.57-15.98c21.3-21.3,21.3-55.84,0-77.14l-100.41-100.41c-26.54-26.54-61.37-39.77-96.21-39.77-19.79,0-39.58,4.27-57.87,12.78l-118.07-118.06c100.57-132.23,171.38-288.23,202.45-457.95,5.74-31.37,10.12-63.21,13.08-95.46,3.01-32.78,4.6-65.95,4.6-99.5,0-102-14.22-200.75-40.75-294.37-9.75-34.41-21.17-68.14-34.16-101.07-158.16-400.89-549.39-685.28-1005.81-685.28s-851.79,287.48-1008.28,691.77c-13.05,33.7-24.43,68.22-34.09,103.44-24.95,90.99-38.35,186.7-38.35,285.51,0,33.55,1.62,66.72,4.62,99.5,2.96,32.24,7.3,64.09,13.04,95.46,92.05,503.17,533.7,885.76,1063.06,885.76,230.96,0,445.19-72.86,621.02-196.75l123.08,123.08c-7.44,17.02-11.45,35.54-11.45,54.73,0,36.49,14.15,70.74,39.84,96.43l381.74,381.74c26.59,26.58,61.5,39.88,96.42,39.88h.01c34.92,0,69.84-13.29,96.43-39.88l167.39-167.38c25.69-25.69,39.84-59.94,39.84-96.43s-14.15-70.74-39.84-96.43ZM1979.41,2798.43c-469,0-861.45-334.02-951.97-776.66-12.88-63-19.66-128.21-19.66-194.96,0-99.96,15.19-196.44,43.36-287.27,122.79-395.96,492.48-684.36,928.27-684.36s798.48,283.03,924.69,673.25c30.32,93.75,46.81,193.67,46.92,297.36,0,.34.01.68.01,1.02s-.01.68-.01,1.02c-.07,66.4-6.83,131.26-19.65,193.95-90.52,442.64-482.97,776.66-951.97,776.66ZM2686.98,2643.04c28.87-25.06,56.36-51.67,82.43-79.62l105.61,105.61-81.03,81.03-107.02-107.02Z"/>
    <path class="cls-2" d="M2951.03,1826.81c0-.34-.01-.68-.01-1.02v2.03c0-.34.01-.68.01-1.02Z"/>
  </g>
  <path d="M3288.4,2932.61c29.88,0,54.1-24.22,54.1-54.1s-24.22-54.1-54.1-54.1-54.1,24.22-54.1,54.1,24.22,54.1,54.1,54.1Z"/>
</svg>