<?xml version="1.0" encoding="UTF-8"?>
<svg id="Layer_1" xmlns="http://www.w3.org/2000/svg" version="1.1" viewBox="0 0 30 30">
  <!-- Generator: Adobe Illustrator 29.8.2, SVG Export Plug-In . SVG Version: 2.1.1 Build 3)  -->
  <defs>
    <style>
      .st0 {
        fill: #231f20;
      }
    </style>
  </defs>
  <path class="st0" d="M25.7,21.4h-2.9c-.2,0-.4.2-.4.4v1.4c0,.2.2.4.4.4h2.9c.2,0,.4-.2.4-.4v-1.4c0-.2-.2-.4-.4-.4ZM25.3,22.8h-2.1v-.7h2.1v.7Z"/>
  <path class="st0" d="M7.9,8.5c.3,0,.5-.2.5-.5v-3.4c0,0,0-.1.1-.1h18c0,0,.1,0,.1.1v3.4c0,.3.2.5.5.5s.5-.2.5-.5v-3.4c0-.6-.5-1.1-1.1-1.1H8.5c-.6,0-1.1.5-1.1,1.1v3.4c0,.3.2.5.5.5Z"/>
  <path class="st0" d="M28.3,9.1h-1.1c-.3,0-.5.2-.5.5s.2.6.5.6h1.1c0,0,.1,0,.1.1v2.4h-.8v-1.4c0-.3-.3-.5-.6-.5s-.5.3-.5.5v6.2s-3.8,0-3.8,0c-.2,0-.4.1-.4.3s.2.4.4.4h3.8v5.8c0,0,0,.1-.1.1h-12.1c-.3,0-.5.2-.5.4h0c0,.3.2.6.5.6h8s0,.9,0,.9c0,.3.2.5.5.5h2.9c.3,0,.5-.2.5-.5v-.9h.3c.6,0,1.1-.5,1.1-1.1v-10.3h1.3c.3,0,.5-.2.5-.5v-2.9c0-.6-.5-1.1-1.1-1.1ZM25.2,25.5h-1.8v-.4h1.8v.4Z"/>
  <path class="st0" d="M21,21.8v1h-.7c-.2,0-.4.2-.4.4s.2.4.4.4h1c.2,0,.4-.2.4-.4v-1.4c0-.2-.2-.4-.4-.4s-.4.2-.4.4Z"/>
  <path class="st0" d="M21.4,17.5h-5.1c-.2,0-.4.2-.4.4s.2.4.4.4h5.1c.2,0,.4-.2.4-.4s-.2-.4-.4-.4Z"/>
  <path class="st0" d="M25.7,18.9h-6.7c-.2,0-.4.2-.4.4s.2.4.4.4h6.3v.7c0,.2.2.4.4.4s.4-.2.4-.4v-1.1c0-.2-.2-.4-.4-.4Z"/>
  <path class="st0" d="M24.6,10.8c-.1-.1-.4-.1-.5,0l-5,5c-.1.1-.1.4,0,.5,0,0,.2.1.3.1s.2,0,.3-.1l5-5c.1-.1.1-.4,0-.5Z"/>
  <path class="st0" d="M24.1,13l-1.4,1.4c-.1.1-.1.4,0,.5,0,0,.2.1.3.1s.2,0,.3-.1l1.4-1.4c.1-.1.1-.4,0-.5-.1-.1-.4-.1-.5,0Z"/>
  <path class="st0" d="M9,14.2c0,0,.2.1.3.1s.2,0,.3-.1l2.9-2.9c.1-.1.1-.4,0-.5-.1-.1-.4-.1-.5,0l-2.9,2.9c-.1.1-.1.4,0,.5Z"/>
  <path class="st0" d="M13.6,7.5c-.2,0-.4.2-.4.4s.2.4.4.4h10.7c.2,0,.4-.2.4-.4v-2.1c0-.2-.2-.4-.4-.4h-13.5c-.2,0-.4.2-.4.4v2.1c0,.2.2.4.4.4h1.4c.2,0,.4-.2.4-.4s-.2-.4-.4-.4h-1v-1.4h12.8v1.4h-10.3Z"/>
  <path class="st0" d="M26,5.7c0-.2-.2-.4-.4-.4s-.4.2-.4.4.2.4.4.4.4-.2.4-.4Z"/>
  <path class="st0" d="M19.4,14.8c0,0,.2,0,.3-.1l2.9-2.9c.1-.1.1-.4,0-.5-.1-.1-.4-.1-.5,0l-2.9,2.9c-.1.1-.1.4,0,.5s.2.1.3.1Z"/>
  <path class="st0" d="M6.1,13.7h1.3v1.8c0,.3.2.5.5.5s.5-.2.5-.5v-4.2c0-.3-.2-.5-.5-.5s-.5.2-.5.5v1.4h-.8v-2.4c0,0,0-.1.1-.1h1.2c.3,0,.5-.2.5-.5s-.2-.5-.5-.5h-1.2c-.6,0-1.1.5-1.1,1.1v2.9c0,.3.2.5.5.5Z"/>
  <path class="st0" d="M26.1,9.7c0-.2-.2-.4-.4-.4H9.3c-.2,0-.4.2-.4.4s.2.4.4.4h16.4c.2,0,.4-.2.4-.4Z"/>
  <path class="st0" d="M9.3,12.6c0,0,.2,0,.3-.1l.7-.7c.1-.1.1-.4,0-.5-.1-.1-.4-.1-.5,0l-.7.7c-.1.1-.1.4,0,.5,0,0,.2.1.3.1Z"/>
  <path class="st0" d="M9.3,6.1c.2,0,.4-.2.4-.4s-.2-.4-.4-.4-.4.2-.4.4.2.4.4.4Z"/>
  <g>
    <path d="M9.3,21.4c-.6,0-2.1-.8-2.4,0s.5.8,1,1,1.8.4,2.1.4c.6-.2.4-1.3.7-1.8.2.5.9,1.4.9,1.9.1.7-.3,3.1.5,3.3s.8-.2.9-.7,0-2.1,0-2.7c-.1-.9-1.1-2.3-1.3-3.2l-1.8-.7c-.1,0-.1.1-.1.2,0,.3-.3,2.2-.4,2.3Z"/>
    <path d="M3.2,20.6l-.5,2.2h.3c-.4.5-1.3,0-1.5.6s.2.7.6.7,1.5,0,1.6,0c.6-.2.2-1.7.8-1.3s-.2,2.4,0,3,.9.5,1.1-.1.4-2,.4-2.4-.2-.5-.3-.8h.5s-.9-2.1-.9-2.1h-1.8Z"/>
    <path d="M9.8,17.2v1.5c.5.2,1.3.6,1.8.7s0,0,.1-.1c.1-.3.5-1.8.7-1.9l1.5,1.8.6-.5c-.6-.7-1.2-1.5-1.8-2.1s-1.2-1-2.2-.7-2.3,1.2-2.7,1.5-.1.1-.2.2l.4.6,1.7-.8Z"/>
    <path d="M2.5,17.9c-1.1.5-.8,1.4-1,2.3l.8.2.2-1.5.2-.2.4,1.4h1.8s.5-1.6.5-1.6c.1,0,.6.4.9.4s1.5-.7,1.5-.8l-.4-.7-1.1.5c-1-.5-1.7-1.1-2.9-.7s-.6.4-.9.5h0Z"/>
    <path d="M2.1,17.8l.4-.4s-.6-.3-.3-.4c.5-.2.9.6,1.6.2,1.2-.7,0-2.4-1-1.8s-.2,1.2-1,1.3v-.5c0,0-.4,0-.4,0-.2.1.3.5.3.6,0,.1-1,.3-.6.5l.7-.4.2.7"/>
    <polygon points="15.4 18.4 13.8 19.8 14.9 21.1 16.6 19.7 15.4 18.4"/>
    <circle cx="12.8" cy="14.5" r="1"/>
    <rect x=".7" y="20.7" width="2" height="1.3" transform="translate(4.5 .1) rotate(12)"/>
  </g>
</svg>