<svg xmlns="http://www.w3.org/2000/svg" id="Logotipo_UITP" width="91" height="48" data-name="Logotipo / UITP" viewBox="0 0 91 48">
    <defs>
        <style>
            .cls-1{fill:#fff}
        </style>
    </defs>
    <g id="uitp-union-internationale-des-transports-publics-vector-logo">
        <path id="Shape" d="M3.5 1.574v5.4c0 1.733.64 2.543 2.143 2.543s2.143-.795 2.143-2.543v-5.4H6.444V0h4.822v1.574H9.957v5.341c0 2.861-1.384 4.228-4.316 4.228S1.325 9.776 1.325 6.915V1.574H0V0h4.807v1.574z" class="cls-1" transform="translate(2.6 18.857)"/>
        <path id="Shape-2" d="M1.428 1.469H0V0h5.2v1.469H3.772v7.287H5.2v1.529H0V8.756h1.428z" class="cls-1" data-name="Shape" transform="translate(15.6 18.857)"/>
        <path id="Shape-3" d="M3.639 1.469H1.9v2.04H0V0h9.533v3.509H7.62v-2.04H5.91v7.287H7.4v1.529H2.115V8.756h1.524z" class="cls-1" data-name="Shape" transform="translate(20.8 18.857)"/>
        <path id="Shape-4" d="M5.466 10.286H.015v-1.53H1.4V1.47H0V0h5.717A4.471 4.471 0 0 1 8.6.75a2.976 2.976 0 0 1 .937 2.459c0 2.207-1.146 3.149-3.832 3.149H3.691v2.4h1.775v1.529zM3.675 1.47V4.9h1.633c1.275 0 1.869-.567 1.869-1.785 0-1.125-.584-1.649-1.838-1.649z" class="cls-1" data-name="Shape" transform="translate(30.333 18.857)"/>
        <path id="Shape-5" d="M1.365 0C.926.352.471.7 0 1.04a25.268 25.268 0 0 1 2.6 2.389V1.04C2.194.7 1.788.352 1.365 0" class="cls-1" data-name="Shape" transform="translate(39.867 7.714)"/>
        <path id="Shape-6" d="M0 1.05v2.379a22.359 22.359 0 0 1 2.6-2.393A24.37 24.37 0 0 1 1.235 0C.8.35.39.7 0 1.05" class="cls-1" data-name="Shape" transform="translate(0 7.714)"/>
        <path id="Shape-7" d="M0 6.619c.409.37.848.741 1.3 1.1A28 28 0 0 1 35.964 7.7c.454-.355.893-.725 1.3-1.1A29.9 29.9 0 0 0 18.641 0 30.045 30.045 0 0 0 0 6.619" class="cls-1" data-name="Shape" transform="translate(2.6)"/>
        <path id="Shape-8" d="M0 2.393c.474.336.948.686 1.374 1.036Q2.011 2.9 2.6 2.378V0A21 21 0 0 1 0 2.393" class="cls-1" data-name="Shape" transform="translate(39.867 4.286)"/>
        <path id="Shape-9" d="M0 .968a30.06 30.06 0 0 0 4.233 2.461c.6-.282 1.207-.551 1.834-.82A28.362 28.362 0 0 1 1.314 0C.856.323.413.632 0 .968" class="cls-1" data-name="Shape" transform="translate(2.6 7.714)"/>
        <path id="Shape-10" d="M0 2.619q.94.385 1.834.81A30.032 30.032 0 0 0 6.067.958 22.98 22.98 0 0 0 4.752 0 27.976 27.976 0 0 1 0 2.619" class="cls-1" data-name="Shape" transform="translate(33.8 7.714)"/>
        <path id="Shape-11" d="M12.992 1.889A32.364 32.364 0 0 1 2.121 0C1.388.266.686.546 0 .854a34.048 34.048 0 0 0 12.992 2.575A33.867 33.867 0 0 0 26 .84 25.018 25.018 0 0 0 23.879 0a32.111 32.111 0 0 1-10.887 1.889" class="cls-1" data-name="Shape" transform="translate(8.667 11.143)"/>
        <path id="Shape-12" d="M0 0v2.378q.589.525 1.226 1.05c.442-.35.9-.7 1.374-1.036A26.907 26.907 0 0 1 0 0" class="cls-1" data-name="Shape" transform="translate(0 4.286)"/>
        <path id="Shape-13" d="M0 1.286c.459.416.9.851 1.315 1.286.444-.416.872-.851 1.285-1.286C2.187.851 1.759.416 1.3 0 .9.435.459.869 0 1.286" class="cls-1" data-name="Shape" transform="translate(39 6.857)"/>
        <path id="Shape-14" d="M1.285 0C.841.416.413.851 0 1.286c.413.435.841.869 1.285 1.286.415-.435.856-.872 1.315-1.286C2.141.869 1.7.435 1.285 0" class="cls-1" data-name="Shape" transform="translate(.867 6.857)"/>
        <path id="Shape-15" d="M0 2.589c.686.308 1.388.588 2.121.84a32.267 32.267 0 0 1 21.758 0A30.843 30.843 0 0 0 26 2.575a34.019 34.019 0 0 0-26 .014" class="cls-1" data-name="Shape" transform="translate(8.667 7.714)"/>
        <path id="Shape-16" d="M1.867 0C1.26.331.638.647 0 .962a26.789 26.789 0 0 1 8.667 6.752V5.143A29.061 29.061 0 0 0 1.867 0" class="cls-1" data-name="Shape" transform="translate(33.8 11.143)"/>
        <path id="Shape-17" d="M0 5.148v2.566A26.843 26.843 0 0 1 8.667.945Q7.71.5 6.8 0A29.986 29.986 0 0 0 0 5.148" class="cls-1" data-name="Shape" transform="translate(0 11.143)"/>
        <path id="Shape-18" d="M0 .864c.636.269 1.246.553 1.842.85.555-.269 1.1-.553 1.625-.864Q2.674.4 1.842 0C1.246.312.636.6 0 .864" class="cls-1" data-name="Shape" transform="translate(31.2 11.143)"/>
        <path id="Shape-19" d="M1.625 0A22.7 22.7 0 0 0 0 .864q.792.446 1.625.85c.6-.312 1.205-.6 1.842-.864A20.04 20.04 0 0 1 1.625 0" class="cls-1" data-name="Shape" transform="translate(6.933 11.143)"/>
        <path id="Shape-20" d="M18.626 6.033A28.244 28.244 0 0 1 1.3.031C.848.386.409.756 0 1.126a29.891 29.891 0 0 0 18.626 6.588A29.829 29.829 0 0 0 37.267 1.1c-.409-.37-.848-.741-1.3-1.1a28.083 28.083 0 0 1-17.341 6.033" class="cls-1" data-name="Shape" transform="translate(2.6 40.286)"/>
        <path id="Shape-21" d="M0 0v2.378q.589.525 1.226 1.05c.442-.35.9-.7 1.374-1.036A23.641 23.641 0 0 1 0 0" class="cls-1" data-name="Shape" transform="translate(0 36.857)"/>
        <path id="Shape-22" d="M0 2.393c.474.336.948.686 1.374 1.036Q2.011 2.9 2.6 2.378V0A22.243 22.243 0 0 1 0 2.393" class="cls-1" data-name="Shape" transform="translate(39.867 36.857)"/>
        <path id="Shape-23" d="M0 1.05v2.379a22.359 22.359 0 0 1 2.6-2.393A24.37 24.37 0 0 1 1.235 0C.8.35.39.7 0 1.05" class="cls-1" data-name="Shape" transform="translate(0 40.286)"/>
        <path id="Shape-24" d="M1.365 0C.926.352.471.7 0 1.04a25.268 25.268 0 0 1 2.6 2.389V1.04C2.21.7 1.8.352 1.365 0" class="cls-1" data-name="Shape" transform="translate(39.867 40.286)"/>
        <path id="Shape-25" d="M13.016 0A33.9 33.9 0 0 0 0 2.589q1.03.462 2.107.84a32.3 32.3 0 0 1 21.771 0A40.068 40.068 0 0 0 26 2.589 33.8 33.8 0 0 0 13.016 0" class="cls-1" data-name="Shape" transform="translate(8.667 32.571)"/>
        <path id="Shape-26" d="M4.233 0A30.032 30.032 0 0 0 0 2.47c.413.324.856.648 1.314.958A29.982 29.982 0 0 1 6.067.81Q5.127.425 4.233 0z" class="cls-1" data-name="Shape" transform="translate(2.6 36.857)"/>
        <path id="Shape-27" d="M1.834 0C1.238.283.627.553 0 .823a28.911 28.911 0 0 1 4.752 2.606c.458-.31.9-.634 1.314-.958A30.032 30.032 0 0 0 1.834 0" class="cls-1" data-name="Shape" transform="translate(33.8 36.857)"/>
        <path id="Shape-28" d="M1.323 2.571c.441-.416.877-.851 1.277-1.285C2.189.851 1.764.416 1.308 0 .9.435.456.869 0 1.286c.471.416.9.851 1.323 1.286" class="cls-1" data-name="Shape" transform="translate(39 39.429)"/>
        <path id="Shape-29" d="M1.285 0C.841.416.413.851 0 1.286c.413.435.841.869 1.285 1.286.415-.435.856-.872 1.315-1.286C2.141.869 1.7.435 1.285 0" class="cls-1" data-name="Shape" transform="translate(.867 39.429)"/>
        <path id="Shape-30" d="M0 6.77q.957.449 1.867.945a29.2 29.2 0 0 0 6.8-5.148V0A27.013 27.013 0 0 1 0 6.77" class="cls-1" data-name="Shape" transform="translate(33.8 29.143)"/>
        <path id="Shape-31" d="M0 0v2.571a29.607 29.607 0 0 0 6.8 5.143q.91-.5 1.867-.947A27.208 27.208 0 0 1 0 0" class="cls-1" data-name="Shape" transform="translate(0 29.143)"/>
        <path id="Shape-32" d="M23.879 0a31.994 31.994 0 0 1-10.887 1.9A32.246 32.246 0 0 1 2.121 0C1.388.267.686.548 0 .843a33.928 33.928 0 0 0 12.992 2.586A33.747 33.747 0 0 0 26 .829 57.332 57.332 0 0 0 23.879 0" class="cls-1" data-name="Shape" transform="translate(8.667 36.857)"/>
        <path id="Shape-33" d="M1.618 1.714c.6-.312 1.21-.6 1.849-.864A30.09 30.09 0 0 1 1.631 0Q.8.4 0 .85c.517.312 1.06.6 1.618.864" class="cls-1" data-name="Shape" transform="translate(6.933 36)"/>
        <path id="Shape-34" d="M1.849 0C1.251.312.639.6 0 .864c.625.269 1.251.553 1.835.85q.836-.4 1.631-.85A19.887 19.887 0 0 0 1.849 0" class="cls-1" data-name="Shape" transform="translate(31.2 36)"/>
        <path id="Shape-35" d="M5.054 5.143H4.57a.183.183 0 0 1-.178-.1l-.484-.993H1.324l-.046.094c-.144.29-.292.59-.438.9a.188.188 0 0 1-.177.1h-.5a.164.164 0 0 1-.144-.064.13.13 0 0 1 0-.128L2.438.074c.017-.045.1-.074.13-.074h.081c.03 0 .112.029.129.074L5.184 4.95a.124.124 0 0 1 0 .125.146.146 0 0 1-.13.068zM2.6 1.437l-.969 1.987H3.6l-.968-1.987z" class="cls-1" data-name="Shape" transform="translate(47.667 13.714)"/>
        <path id="Shape-36" d="M1.8 5.143H.133A.135.135 0 0 1 0 5.007V.136A.135.135 0 0 1 .133 0H1.8a2.554 2.554 0 0 1 2.533 2.564A2.561 2.561 0 0 1 1.8 5.143zM.727.709v3.755h.965a1.8 1.8 0 0 0 1.84-1.885 1.794 1.794 0 0 0-1.84-1.87z" class="cls-1" data-name="Shape" transform="translate(53.733 13.714)"/>
        <path id="Shape-37" d="M.016.193A.132.132 0 0 1 .145 0h.566A.155.155 0 0 1 .84.074l1.744 3.587h.048L4.36.074A.155.155 0 0 1 4.489 0h.565a.129.129 0 0 1 .129.193L2.761 5.069a.129.129 0 0 1-.129.074h-.08a.145.145 0 0 1-.129-.074z" class="cls-1" data-name="Shape" transform="translate(58.067 13.714)"/>
        <path id="Shape-38" d="M5.054 5.143h-.5a.181.181 0 0 1-.177-.1l-.485-.993H1.308a63.18 63.18 0 0 0-.484.993.188.188 0 0 1-.177.1h-.5a.146.146 0 0 1-.128-.061.133.133 0 0 1 0-.131L2.438.074c.017-.045.1-.074.13-.074h.081c.03 0 .112.029.129.074L5.184 4.95a.124.124 0 0 1 0 .125.146.146 0 0 1-.13.068zm-2.47-3.706l-.969 1.987h1.97l-.969-1.987z" class="cls-1" data-name="Shape" transform="translate(62.4 13.714)"/>
        <path id="Shape-39" d="M.015.131A.134.134 0 0 1 .153 0h.183L3.57 3.58h.015V.2a.134.134 0 0 1 .138-.127H4.2A.134.134 0 0 1 4.333.2v4.811a.134.134 0 0 1-.137.131H4L.763 1.461H.748v3.477a.134.134 0 0 1-.138.132H.137A.134.134 0 0 1 0 4.938V.131z" class="cls-1" data-name="Shape" transform="translate(68.467 13.714)"/>
        <path id="Shape-40" d="M2.562 0A2.509 2.509 0 0 1 4.28.657a.157.157 0 0 1 .015.2l-.306.321a.109.109 0 0 1-.175 0A1.928 1.928 0 0 0 2.577.7 1.824 1.824 0 0 0 .786 2.557a1.824 1.824 0 0 0 1.791 1.855A1.879 1.879 0 0 0 3.8 3.945a.132.132 0 0 1 .175 0l.32.321a.137.137 0 0 1 0 .19 2.438 2.438 0 0 1-1.733.687A2.549 2.549 0 0 1 0 2.586 2.565 2.565 0 0 1 2.562 0" class="cls-1" data-name="Shape" transform="translate(73.667 13.714)"/>
        <path id="Shape-41" d="M0 .136A.146.146 0 0 1 .156 0h.555a.146.146 0 0 1 .156.136v4.871a.146.146 0 0 1-.156.136H.156A.146.146 0 0 1 0 5.007z" class="cls-1" data-name="Shape" transform="translate(78.867 13.714)"/>
        <path id="Shape-42" d="M0 .131A.134.134 0 0 1 .138 0h.185L3.58 3.58V.2a.134.134 0 0 1 .139-.127H4.2A.134.134 0 0 1 4.333.2v4.811a.134.134 0 0 1-.138.131h-.169L.768 1.461v3.477a.134.134 0 0 1-.138.132H.154a.134.134 0 0 1-.138-.131V.131z" class="cls-1" data-name="Shape" transform="translate(81.467 13.714)"/>
        <path id="Shape-43" d="M2.534 0a2.58 2.58 0 0 1 1.713.659.143.143 0 0 1 0 .205c-.1.117-.216.22-.317.337-.058.059-.115.059-.187-.015A1.848 1.848 0 0 0 2.548.7 1.827 1.827 0 0 0 .777 2.564a1.818 1.818 0 0 0 1.771 1.861A2.348 2.348 0 0 0 3.6 4.176V3.37h-.692a.13.13 0 0 1-.13-.132v-.41a.13.13 0 0 1 .13-.132h1.281a.13.13 0 0 1 .13.132c0 .571.014 1.158.014 1.729a.224.224 0 0 1-.058.117 3.465 3.465 0 0 1-1.742.469A2.548 2.548 0 0 1 0 2.579 2.551 2.551 0 0 1 2.534 0" class="cls-1" data-name="Shape" transform="translate(86.667 13.714)"/>
        <path id="Shape-44" d="M.618 5.143H.136A.136.136 0 0 1 0 5.008V.135h.015A.136.136 0 0 1 .15 0h1.673a1.639 1.639 0 1 1 0 3.278H.753v1.73a.135.135 0 0 1-.135.135zM.784.722v1.82h1.01v.014a.929.929 0 0 0 .664-.275.949.949 0 0 0 .27-.672.913.913 0 0 0-.934-.887z" class="cls-1" data-name="Shape" transform="translate(47.667 21.429)"/>
        <path id="Shape-45" d="M0 .134A.126.126 0 0 1 .118 0h.431a.126.126 0 0 1 .118.134v3c0 .728.406 1.293 1.06 1.293A1.145 1.145 0 0 0 2.8 3.151V.134A.126.126 0 0 1 2.917 0h.432a.126.126 0 0 1 .118.134v3.047a1.821 1.821 0 0 1-1.74 1.962A1.811 1.811 0 0 1 0 3.181V.134z" class="cls-1" data-name="Shape" transform="translate(52 21.429)"/>
        <path id="Shape-46" d="M1.869 5.143H.136A.136.136 0 0 1 0 5.008V.135A.136.136 0 0 1 .136 0h1.642a1.422 1.422 0 0 1 1.538 1.354 1.426 1.426 0 0 1-.769 1.173 1.346 1.346 0 0 1 .92 1.2 1.464 1.464 0 0 1-1.598 1.416zM.739 2.9v1.566h1.115a.78.78 0 0 0 .8-.8.835.835 0 0 0-.9-.767zM.753.692v1.549h1v-.015a.735.735 0 0 0 .747-.782.705.705 0 0 0-.751-.752z" class="cls-1" data-name="Shape" transform="translate(58.067 21.429)"/>
        <path id="Shape-47" d="M0 .136A.129.129 0 0 1 .123 0h.435a.129.129 0 0 1 .123.136v4.328h1.8A.129.129 0 0 1 2.6 4.6v.407a.129.129 0 0 1-.123.136H.136a.129.129 0 0 1-.123-.136V.136z" class="cls-1" data-name="Shape" transform="translate(62.4 21.429)"/>
        <path id="Shape-48" d="M0 .136A.146.146 0 0 1 .156 0h.555a.146.146 0 0 1 .156.136v4.871a.146.146 0 0 1-.156.136H.156A.146.146 0 0 1 0 5.007z" class="cls-1" data-name="Shape" transform="translate(66.733 21.429)"/>
        <path id="Shape-49" d="M2.58 0a2.491 2.491 0 0 1 1.71.657.142.142 0 0 1 0 .2l-.3.321a.108.108 0 0 1-.174 0A1.915 1.915 0 0 0 2.58.7 1.82 1.82 0 0 0 .8 2.557a1.82 1.82 0 0 0 1.78 1.855 1.866 1.866 0 0 0 1.22-.467.131.131 0 0 1 .174 0l.319.321a.126.126 0 0 1-.014.19 2.421 2.421 0 0 1-1.725.687A2.543 2.543 0 0 1 0 2.586 2.593 2.593 0 0 1 2.58 0" class="cls-1" data-name="Shape" transform="translate(68.467 21.429)"/>
        <path id="Shape-50" d="M1.353.679H.137A.136.136 0 0 1 0 .543V.136A.136.136 0 0 1 .137 0H3.33a.136.136 0 0 1 .137.136v.407a.136.136 0 0 1-.137.136H2.113v4.328a.136.136 0 0 1-.137.136H1.49a.136.136 0 0 1-.137-.136V.679z" class="cls-1" data-name="Shape" transform="translate(47.667 29.143)"/>
        <path id="Shape-51" d="M3.285 5.143h-.531a.123.123 0 0 1-.112-.06l-.908-1.94H.7v1.865a.131.131 0 0 1-.126.135H.126A.131.131 0 0 1 0 5.008V.135A.131.131 0 0 1 .126 0h1.858a1.516 1.516 0 0 1 1.483 1.579 1.621 1.621 0 0 1-1.006 1.489L3.4 4.932a.165.165 0 0 1-.007.155.12.12 0 0 1-.108.056zM.713.707V2.5h1.216a.893.893 0 0 0 .839-.918.867.867 0 0 0-.839-.875z" class="cls-1" data-name="Shape" transform="translate(52 29.143)"/>
        <path id="Shape-52" d="M5.054 5.143h-.5a.183.183 0 0 1-.178-.1l-.486-.997H1.3c-.151.3-.315.635-.485.993a.188.188 0 0 1-.177.1H.14a.135.135 0 0 1-.115-.051.158.158 0 0 1-.015-.138L2.435.074C2.452.029 2.534 0 2.564 0h.081c.03 0 .113.029.13.074L5.184 4.95a.124.124 0 0 1 0 .125.146.146 0 0 1-.13.068zM2.6 1.437l-.97 1.986H3.6l-.97-1.986z" class="cls-1" data-name="Shape" transform="translate(56.333 29.143)"/>
        <path id="Shape-53" d="M.015.131A.134.134 0 0 1 .153 0h.183L3.57 3.58h.015V.2a.134.134 0 0 1 .138-.127H4.2A.134.134 0 0 1 4.333.2v4.811a.134.134 0 0 1-.137.131H4L.763 1.461H.748v3.477a.134.134 0 0 1-.138.132H.137A.134.134 0 0 1 0 4.938V.131z" class="cls-1" data-name="Shape" transform="translate(62.4 29.143)"/>
        <path id="Shape-54" d="M.037 4.327a3.282 3.282 0 0 1 .205-.291.2.2 0 0 1 .269-.058 2.441 2.441 0 0 0 1.233.5c.537 0 .869-.306.869-.656 0-.423-.4-.7-1.17-.991C.653 2.52.037 2.142.037 1.311.037.758.5 0 1.728 0a2.638 2.638 0 0 1 1.423.423A.162.162 0 0 1 3.2.67c-.063.087-.126.189-.19.277a.2.2 0 0 1-.269.073A2.5 2.5 0 0 0 1.7.67c-.648 0-.869.379-.869.641 0 .408.332.656.98.9.9.335 1.66.728 1.66 1.588 0 .743-.711 1.34-1.723 1.34a2.538 2.538 0 0 1-1.66-.568c-.063-.087-.126-.131-.047-.248" class="cls-1" data-name="Shape" transform="translate(67.6 29.143)"/>
        <path id="Shape-55" d="M.618 5.143H.136A.136.136 0 0 1 0 5.008V.135h.015A.136.136 0 0 1 .15 0h1.673a1.639 1.639 0 1 1 0 3.278H.753v1.73a.135.135 0 0 1-.135.135zM.769.722v1.82h1.01v.014a.929.929 0 0 0 .664-.275.949.949 0 0 0 .27-.672.913.913 0 0 0-.935-.887z" class="cls-1" data-name="Shape" transform="translate(71.933 29.143)"/>
        <path id="Shape-56" d="M2.593 5.143A2.551 2.551 0 0 1 0 2.579a2.6 2.6 0 0 1 5.2 0 2.558 2.558 0 0 1-2.607 2.564zm0-4.44A1.9 1.9 0 0 0 .711 2.579 1.894 1.894 0 0 0 2.593 4.44a1.873 1.873 0 0 0 1.881-1.861A1.9 1.9 0 0 0 2.593.7z" class="cls-1" data-name="Shape" transform="translate(75.4 29.143)"/>
        <path id="Shape-57" d="M3.286 5.143h-.529a.123.123 0 0 1-.112-.06l-.9-1.94H.71v1.865a.13.13 0 0 1-.125.135H.14a.131.131 0 0 1-.126-.135V.135H0A.131.131 0 0 1 .125 0h1.852a1.52 1.52 0 0 1 1.49 1.579 1.621 1.621 0 0 1-1 1.489L3.4 4.932a.167.167 0 0 1-.007.156.119.119 0 0 1-.107.055zM.724.707V2.5h1.211a.891.891 0 0 0 .835-.918.866.866 0 0 0-.835-.875z" class="cls-1" data-name="Shape" transform="translate(81.467 29.143)"/>
        <path id="Shape-58" d="M1.353.679H.137A.136.136 0 0 1 0 .543V.136A.136.136 0 0 1 .137 0H3.33a.136.136 0 0 1 .137.136v.407a.136.136 0 0 1-.137.136H2.113v4.328a.136.136 0 0 1-.137.136H1.49a.136.136 0 0 1-.137-.136z" class="cls-1" data-name="Shape" transform="translate(85.8 29.143)"/>
    </g>
</svg>
