<svg xmlns="http://www.w3.org/2000/svg" width="128.155" height="35.31" viewBox="0 0 128.155 35.31">
    <defs>
        <style>
            .cls-1{fill:#fff}.cls-2{fill:none;stroke:#fff;stroke-miterlimit:10;stroke-width:.31px}
        </style>
    </defs>
    <g id="Logotipo_CML_Branco" data-name="Logotipo / CML Branco" transform="translate(.155 .155)">
        <path id="Shape" d="M12.408 3.609a6.6 6.6 0 0 1 .362 2.206c0 .065 0 .129-.007.193a2.2 2.2 0 0 1-1.3 2A15.566 15.566 0 0 1 7.8 9a16.869 16.869 0 0 1-2.935.212l-1.553 3.616a.367.367 0 0 1-.327.211.36.36 0 0 1-.239-.09L.119 10.811A.351.351 0 0 1 0 10.548a.326.326 0 0 1 .145-.284L10.646.647A2.5 2.5 0 0 1 12.329 0a2.551 2.551 0 0 1 1.754.7l2.341 2.349a.348.348 0 0 1 .092.239.355.355 0 0 1-.358.353z" class="cls-1" transform="translate(0 10.294)"/>
        <path id="Shape-2" d="M12.408 3.609a6.6 6.6 0 0 1 .362 2.206c0 .065 0 .129-.007.193a2.2 2.2 0 0 1-1.3 2A15.566 15.566 0 0 1 7.8 9a16.869 16.869 0 0 1-2.935.212l-1.553 3.616a.367.367 0 0 1-.327.211.36.36 0 0 1-.239-.09L.119 10.811A.351.351 0 0 1 0 10.548a.326.326 0 0 1 .145-.284L10.646.647A2.5 2.5 0 0 1 12.329 0a2.551 2.551 0 0 1 1.754.7l2.341 2.349a.348.348 0 0 1 .092.239.355.355 0 0 1-.358.353z" class="cls-2" data-name="Shape" transform="translate(0 10.294)"/>
        <path id="Shape-3" d="M20.4 1.68a1.036 1.036 0 0 0 .243-.672A.983.983 0 0 0 19.69 0a.876.876 0 0 0-.634.266 3.429 3.429 0 0 1-2.487 1.09A3.305 3.305 0 0 1 14.082.3.947.947 0 0 0 13.4 0a.852.852 0 0 0-.7.338A3.148 3.148 0 0 1 10.373 1.4 3.061 3.061 0 0 1 8.049.368.934.934 0 0 0 7.311 0a.918.918 0 0 0-.7.317 3.379 3.379 0 0 1-2.48 1.077A3.453 3.453 0 0 1 1.632.3.946.946 0 0 0 .955 0 .982.982 0 0 0 0 1.007a1.212 1.212 0 0 0 .245.7A4.68 4.68 0 0 0 3.858 3.43a4.69 4.69 0 0 0 2.793-.888.906.906 0 0 1 .6-.218.926.926 0 0 1 .633.252 4.017 4.017 0 0 0 2.446.856 4 4 0 0 0 2.52-.9.888.888 0 0 1 1.17-.008 4.62 4.62 0 0 0 2.748.91A4.832 4.832 0 0 0 20.4 1.68" class="cls-1" data-name="Shape" transform="translate(8.946 31.569)"/>
        <path id="Shape-4" d="M20.4 1.68a1.036 1.036 0 0 0 .243-.672A.983.983 0 0 0 19.69 0a.876.876 0 0 0-.634.266 3.429 3.429 0 0 1-2.487 1.09A3.305 3.305 0 0 1 14.082.3.947.947 0 0 0 13.4 0a.852.852 0 0 0-.7.338A3.148 3.148 0 0 1 10.373 1.4 3.061 3.061 0 0 1 8.049.368.934.934 0 0 0 7.311 0a.918.918 0 0 0-.7.317 3.379 3.379 0 0 1-2.48 1.077A3.453 3.453 0 0 1 1.632.3.946.946 0 0 0 .955 0 .982.982 0 0 0 0 1.007a1.212 1.212 0 0 0 .245.7A4.68 4.68 0 0 0 3.858 3.43a4.69 4.69 0 0 0 2.793-.888.906.906 0 0 1 .6-.218.926.926 0 0 1 .633.252 4.017 4.017 0 0 0 2.446.856 4 4 0 0 0 2.52-.9.888.888 0 0 1 1.17-.008 4.62 4.62 0 0 0 2.748.91A4.832 4.832 0 0 0 20.4 1.68z" class="cls-2" data-name="Shape" transform="translate(8.946 31.569)"/>
        <path id="Shape-5" d="M20.909.549A.558.558 0 0 0 20.342 0H5.926a.552.552 0 0 0-.572.536V1.73a.586.586 0 0 0 .578.57h6.312l-1.161 15.665a7.534 7.534 0 0 1-4.791-3.833H.565a.554.554 0 0 0-.548.563L0 16.138a.584.584 0 0 0 .59.556l1.51.006a11.418 11.418 0 0 0 11 8 11.454 11.454 0 0 0 11.027-8.03l1.443-.005a.562.562 0 0 0 .572-.549l-.01-1.436a.548.548 0 0 0-.55-.554H19.97A7.39 7.39 0 0 1 15.142 18L14.025 2.3h6.294a.553.553 0 0 0 .583-.525z" class="cls-1" data-name="Shape" transform="translate(6.882 5.49)"/>
        <path id="Shape-6" d="M20.909.549A.558.558 0 0 0 20.342 0H5.926a.552.552 0 0 0-.572.536V1.73a.586.586 0 0 0 .578.57h6.312l-1.161 15.665a7.534 7.534 0 0 1-4.791-3.833H.565a.554.554 0 0 0-.548.563L0 16.138a.584.584 0 0 0 .59.556l1.51.006a11.418 11.418 0 0 0 11 8 11.454 11.454 0 0 0 11.027-8.03l1.443-.005a.562.562 0 0 0 .572-.549l-.01-1.436a.548.548 0 0 0-.55-.554H19.97A7.39 7.39 0 0 1 15.142 18L14.025 2.3h6.294a.553.553 0 0 0 .583-.525z" class="cls-2" data-name="Shape" transform="translate(6.882 5.49)"/>
        <path id="Shape-7" d="M5.8 4.789a.4.4 0 0 0 .389-.407.41.41 0 0 0-.133-.309L3.973 2.416 6.074.7a.449.449 0 0 0 .115-.291A.4.4 0 0 0 5.8.008L.575 0A.584.584 0 0 0 .02.606L0 4.219a.576.576 0 0 0 .568.581z" class="cls-1" data-name="Shape" transform="translate(17.204)"/>
        <path id="Shape-8" d="M5.8 4.789a.4.4 0 0 0 .389-.407.41.41 0 0 0-.133-.309L3.973 2.416 6.074.7a.449.449 0 0 0 .115-.291A.4.4 0 0 0 5.8.008L.575 0A.584.584 0 0 0 .02.606L0 4.219a.576.576 0 0 0 .568.581z" class="cls-2" data-name="Shape" transform="translate(17.204)"/>
        <path id="Shape-9" d="M4.109 3.61a6.6 6.6 0 0 0-.362 2.206c0 .064.005.129.007.192a2.2 2.2 0 0 0 1.3 2A15.581 15.581 0 0 0 8.714 9a16.868 16.868 0 0 0 2.935.212l1.551 3.616a.367.367 0 0 0 .327.211.359.359 0 0 0 .239-.091l2.634-2.137a.351.351 0 0 0 .119-.263.326.326 0 0 0-.145-.284L5.87.647A2.5 2.5 0 0 0 4.187 0a2.549 2.549 0 0 0-1.755.7L.092 3.046A.348.348 0 0 0 0 3.285a.355.355 0 0 0 .358.353z" class="cls-1" data-name="Shape" transform="translate(22.022 10.294)"/>
        <path id="Shape-10" d="M4.109 3.61a6.6 6.6 0 0 0-.362 2.206c0 .064.005.129.007.192a2.2 2.2 0 0 0 1.3 2A15.581 15.581 0 0 0 8.714 9a16.868 16.868 0 0 0 2.935.212l1.551 3.616a.367.367 0 0 0 .327.211.359.359 0 0 0 .239-.091l2.634-2.137a.351.351 0 0 0 .119-.263.326.326 0 0 0-.145-.284L5.87.647A2.5 2.5 0 0 0 4.187 0a2.549 2.549 0 0 0-1.755.7L.092 3.046A.348.348 0 0 0 0 3.285a.355.355 0 0 0 .358.353z" class="cls-2" data-name="Shape" transform="translate(22.022 10.294)"/>
        <path id="Shape-11" d="M46.431 4.8a1.821 1.821 0 0 1-.576-.087 1.245 1.245 0 0 1-.446-.257 1.144 1.144 0 0 1-.286-.426 1.611 1.611 0 0 1-.1-.591V1.184a.071.071 0 0 1 .012-.039.075.075 0 0 1 .042-.027.375.375 0 0 1 .076-.017.9.9 0 0 1 .124-.007.948.948 0 0 1 .123.006.373.373 0 0 1 .077.017.074.074 0 0 1 .04.027.064.064 0 0 1 .013.039v2.2a1.366 1.366 0 0 0 .065.441.826.826 0 0 0 .187.314.779.779 0 0 0 .3.188 1.125 1.125 0 0 0 .388.063 1.19 1.19 0 0 0 .394-.061.751.751 0 0 0 .292-.186.849.849 0 0 0 .184-.306 1.3 1.3 0 0 0 .063-.428V1.184a.076.076 0 0 1 .012-.04.081.081 0 0 1 .041-.026.393.393 0 0 1 .078-.017.921.921 0 0 1 .122-.007.89.89 0 0 1 .12.007.359.359 0 0 1 .076.017.089.089 0 0 1 .041.026.062.062 0 0 1 .014.04v2.223A1.632 1.632 0 0 1 47.8 4a1.224 1.224 0 0 1-.291.44 1.237 1.237 0 0 1-.461.272 1.9 1.9 0 0 1-.617.088zm15.286 0a1.811 1.811 0 0 1-.671-.118 1.35 1.35 0 0 1-.51-.348 1.588 1.588 0 0 1-.326-.569 2.48 2.48 0 0 1-.113-.781 2.474 2.474 0 0 1 .122-.807 1.758 1.758 0 0 1 .344-.6 1.476 1.476 0 0 1 .53-.375 1.76 1.76 0 0 1 .684-.13 1.724 1.724 0 0 1 .322.03 2.257 2.257 0 0 1 .29.075 1.348 1.348 0 0 1 .235.1.743.743 0 0 1 .143.1.332.332 0 0 1 .052.058.253.253 0 0 1 .019.047.356.356 0 0 1 .012.063.8.8 0 0 1 0 .087.725.725 0 0 1-.005.1.234.234 0 0 1-.018.065.091.091 0 0 1-.028.04.059.059 0 0 1-.04.013.221.221 0 0 1-.116-.055 2 2 0 0 0-.192-.121 1.623 1.623 0 0 0-.284-.122 1.315 1.315 0 0 0-.4-.054 1.1 1.1 0 0 0-.465.1.989.989 0 0 0-.357.286 1.4 1.4 0 0 0-.23.459 2.189 2.189 0 0 0-.081.62 2.148 2.148 0 0 0 .079.612 1.267 1.267 0 0 0 .225.445.946.946 0 0 0 .361.269 1.217 1.217 0 0 0 .483.092 1.331 1.331 0 0 0 .4-.054 1.574 1.574 0 0 0 .291-.119 2.18 2.18 0 0 0 .2-.12.246.246 0 0 1 .121-.053.074.074 0 0 1 .036.008.058.058 0 0 1 .023.032.244.244 0 0 1 .014.066v.006a.905.905 0 0 1 0 .1.7.7 0 0 1 0 .079.341.341 0 0 1-.01.059.206.206 0 0 1-.02.045.259.259 0 0 1-.041.048.816.816 0 0 1-.124.086 1.444 1.444 0 0 1-.235.112 1.985 1.985 0 0 1-.719.13zm-60.1 0a1.818 1.818 0 0 1-.671-.118 1.352 1.352 0 0 1-.511-.348 1.583 1.583 0 0 1-.322-.574A2.48 2.48 0 0 1 0 2.979a2.474 2.474 0 0 1 .122-.807 1.742 1.742 0 0 1 .344-.6A1.486 1.486 0 0 1 1 1.2a1.76 1.76 0 0 1 .684-.13A1.729 1.729 0 0 1 2 1.1a2.24 2.24 0 0 1 .29.075 1.391 1.391 0 0 1 .236.1.807.807 0 0 1 .143.1.4.4 0 0 1 .052.058.2.2 0 0 1 .018.047.454.454 0 0 1 .013.063.8.8 0 0 1 0 .087.709.709 0 0 1-.006.1.233.233 0 0 1-.018.065.091.091 0 0 1-.028.04.061.061 0 0 1-.04.013.218.218 0 0 1-.115-.055 2 2 0 0 0-.192-.121 1.608 1.608 0 0 0-.285-.122 1.321 1.321 0 0 0-.4-.054 1.094 1.094 0 0 0-.464.1.976.976 0 0 0-.358.286 1.377 1.377 0 0 0-.229.459 2.186 2.186 0 0 0-.082.62 2.178 2.178 0 0 0 .079.612 1.254 1.254 0 0 0 .225.445.942.942 0 0 0 .361.269 1.22 1.22 0 0 0 .484.092 1.328 1.328 0 0 0 .4-.054 1.553 1.553 0 0 0 .291-.119 2.187 2.187 0 0 0 .2-.12.243.243 0 0 1 .125-.064.07.07 0 0 1 .035.008.063.063 0 0 1 .024.032.3.3 0 0 1 .013.066.919.919 0 0 1 0 .107v.079a.341.341 0 0 1-.01.059.206.206 0 0 1-.02.045.242.242 0 0 1-.041.048.83.83 0 0 1-.123.086 1.443 1.443 0 0 1-.235.112 1.985 1.985 0 0 1-.719.13zm74.749-.028h-.146a.35.35 0 0 1-.083-.014.089.089 0 0 1-.041-.026.258.258 0 0 1-.025-.042l-.328-.886h-1.585l-.313.874a.158.158 0 0 1-.023.044.119.119 0 0 1-.042.031.318.318 0 0 1-.08.019c-.047 0-.089.005-.134.005a1.185 1.185 0 0 1-.14-.007.159.159 0 0 1-.077-.027.068.068 0 0 1-.02-.058.312.312 0 0 1 .024-.1L74.634 1.2a.127.127 0 0 1 .03-.05.125.125 0 0 1 .057-.031.432.432 0 0 1 .094-.016h.303a.442.442 0 0 1 .1.016.133.133 0 0 1 .059.031.146.146 0 0 1 .032.052l1.282 3.381a.335.335 0 0 1 .025.1.07.07 0 0 1-.022.058.167.167 0 0 1-.079.025l-.146.001zM74.947 1.6l-.658 1.813h1.328zM69.31 4.767a.9.9 0 0 1-.121-.007.59.59 0 0 1-.078-.017.076.076 0 0 1-.041-.027.061.061 0 0 1-.012-.039V1.319a.188.188 0 0 1 .061-.16.222.222 0 0 1 .139-.049h.817c.083 0 .161 0 .238.011a2.26 2.26 0 0 1 .268.042 1.13 1.13 0 0 1 .316.121.981.981 0 0 1 .273.218.924.924 0 0 1 .174.3 1.114 1.114 0 0 1 .059.375 1.241 1.241 0 0 1-.095.492 1.041 1.041 0 0 1-.27.374 1.245 1.245 0 0 1-.431.239 1.97 1.97 0 0 1-.607.085h-.434v1.31a.06.06 0 0 1-.013.039.085.085 0 0 1-.04.027.54.54 0 0 1-.077.017.915.915 0 0 1-.126.007zm.255-3.257v1.46h.457a1.14 1.14 0 0 0 .383-.056.727.727 0 0 0 .255-.157.659.659 0 0 0 .157-.239.848.848 0 0 0 .053-.3.737.737 0 0 0-.087-.372.6.6 0 0 0-.216-.222.763.763 0 0 0-.267-.094 1.844 1.844 0 0 0-.267-.02zm-3.772 3.257a.919.919 0 0 1-.121-.007.378.378 0 0 1-.079-.017.072.072 0 0 1-.041-.027.061.061 0 0 1-.012-.039V1.184a.062.062 0 0 1 .013-.04.094.094 0 0 1 .045-.026.42.42 0 0 1 .079-.017.86.86 0 0 1 .117-.007.907.907 0 0 1 .122.007.393.393 0 0 1 .078.017.081.081 0 0 1 .041.026.073.073 0 0 1 .012.04v3.493a.068.068 0 0 1-.012.039.076.076 0 0 1-.041.027.469.469 0 0 1-.078.017.907.907 0 0 1-.123.007zm-8.738 0a.94.94 0 0 1-.121-.007.407.407 0 0 1-.079-.017.072.072 0 0 1-.041-.027.068.068 0 0 1-.013-.039V1.184a.065.065 0 0 1 .014-.04.091.091 0 0 1 .043-.026.472.472 0 0 1 .08-.017.861.861 0 0 1 .117-.007.921.921 0 0 1 .122.007.393.393 0 0 1 .078.017.084.084 0 0 1 .041.026.066.066 0 0 1 .012.04v3.493a.062.062 0 0 1-.013.039.076.076 0 0 1-.041.027.469.469 0 0 1-.078.017.9.9 0 0 1-.121.007zm-17.145 0a.9.9 0 0 1-.107-.006.41.41 0 0 1-.073-.015.153.153 0 0 1-.046-.023.079.079 0 0 1-.022-.031l-1.288-3.184v3.169a.073.073 0 0 1-.012.04.084.084 0 0 1-.044.027.613.613 0 0 1-.078.017.923.923 0 0 1-.124.007.914.914 0 0 1-.122-.007.574.574 0 0 1-.077-.017.071.071 0 0 1-.04-.027.08.08 0 0 1-.01-.04V1.33a.2.2 0 0 1 .066-.169.239.239 0 0 1 .147-.05h.311a.709.709 0 0 1 .168.017.369.369 0 0 1 .126.054.336.336 0 0 1 .09.092.683.683 0 0 1 .063.133l1.092 2.635h.015l1.137-2.627a.758.758 0 0 1 .072-.143.365.365 0 0 1 .085-.095.291.291 0 0 1 .1-.05.482.482 0 0 1 .131-.016h.33a.3.3 0 0 1 .086.013.183.183 0 0 1 .069.04.235.235 0 0 1 .045.066.272.272 0 0 1 .017.1v3.346a.064.064 0 0 1-.012.039.082.082 0 0 1-.043.027.486.486 0 0 1-.077.017.89.89 0 0 1-.123.007.9.9 0 0 1-.12-.007.364.364 0 0 1-.079-.017.076.076 0 0 1-.041-.027.061.061 0 0 1-.012-.039V1.507h-.01L40.157 4.69a.087.087 0 0 1-.025.034.149.149 0 0 1-.047.024.384.384 0 0 1-.074.013.741.741 0 0 1-.101.006zm-8.4 0h-.146a.349.349 0 0 1-.083-.014.089.089 0 0 1-.041-.026.257.257 0 0 1-.025-.042l-.328-.886H29.3l-.312.874a.185.185 0 0 1-.023.044.123.123 0 0 1-.043.031.3.3 0 0 1-.08.019c-.029 0-.075.005-.134.005a1.185 1.185 0 0 1-.14-.007.158.158 0 0 1-.076-.027.068.068 0 0 1-.021-.058.322.322 0 0 1 .025-.1l1.279-3.38a.14.14 0 0 1 .031-.05.121.121 0 0 1 .057-.031.432.432 0 0 1 .094-.016h.304a.429.429 0 0 1 .1.016.137.137 0 0 1 .059.031.16.16 0 0 1 .032.052l1.282 3.381a.413.413 0 0 1 .025.1.072.072 0 0 1-.023.058.158.158 0 0 1-.078.025c-.033-.002-.083.001-.148.001zm-1.427-3.173l-.658 1.814h1.328l-.666-1.814zM25.87 4.767c-.054 0-.1 0-.126-.005a.319.319 0 0 1-.078-.019.107.107 0 0 1-.046-.035.214.214 0 0 1-.028-.056l-.352-.858a2.881 2.881 0 0 0-.128-.269.883.883 0 0 0-.158-.211.638.638 0 0 0-.215-.138.822.822 0 0 0-.3-.049H24.1v1.55a.058.058 0 0 1-.014.039.083.083 0 0 1-.041.027.406.406 0 0 1-.076.017 1.044 1.044 0 0 1-.245 0 .393.393 0 0 1-.078-.017.072.072 0 0 1-.041-.027.061.061 0 0 1-.012-.039V1.309a.175.175 0 0 1 .06-.154.22.22 0 0 1 .129-.044h.812c.092 0 .172 0 .24.007s.122.01.173.016a1.5 1.5 0 0 1 .392.115.888.888 0 0 1 .284.2.786.786 0 0 1 .173.276.99.99 0 0 1 .058.345.98.98 0 0 1-.051.328.769.769 0 0 1-.149.256.959.959 0 0 1-.233.194 1.5 1.5 0 0 1-.3.137.763.763 0 0 1 .314.246 1.277 1.277 0 0 1 .126.194c.039.074.079.157.118.247l.342.8a1.391 1.391 0 0 1 .053.142.22.22 0 0 1 .013.064.087.087 0 0 1-.008.039.079.079 0 0 1-.039.029.408.408 0 0 1-.083.017 2.54 2.54 0 0 1-.147.004zM24.1 1.51v1.227h.5a1.128 1.128 0 0 0 .347-.047.7.7 0 0 0 .244-.13.506.506 0 0 0 .143-.2.643.643 0 0 0 .045-.245.625.625 0 0 0-.1-.361.569.569 0 0 0-.337-.212 1.031 1.031 0 0 0-.167-.029 3.13 3.13 0 0 0-.243-.008zm-3.361 3.257h-.147a.349.349 0 0 1-.083-.014.094.094 0 0 1-.041-.026.257.257 0 0 1-.025-.042l-.328-.886h-1.588l-.313.874a.158.158 0 0 1-.023.044.116.116 0 0 1-.043.031.3.3 0 0 1-.079.019c-.047 0-.089.005-.134.005a1.162 1.162 0 0 1-.14-.007.159.159 0 0 1-.077-.027.068.068 0 0 1-.02-.058.344.344 0 0 1 .024-.1L19 1.2a.13.13 0 0 1 .031-.05.119.119 0 0 1 .056-.031.432.432 0 0 1 .095-.016h.303a.442.442 0 0 1 .1.016.139.139 0 0 1 .058.031.147.147 0 0 1 .032.052l1.281 3.381a.31.31 0 0 1 .025.1.065.065 0 0 1-.022.058.162.162 0 0 1-.078.025c-.044-.001-.093.001-.142.001zM19.316 1.6l-.657 1.813h1.328zm-6.335 3.167a.862.862 0 0 1-.106-.006.408.408 0 0 1-.074-.015.153.153 0 0 1-.046-.023.089.089 0 0 1-.023-.031l-1.287-3.184v3.169a.066.066 0 0 1-.012.04.082.082 0 0 1-.043.027.6.6 0 0 1-.079.017.923.923 0 0 1-.124.007.893.893 0 0 1-.122-.007.559.559 0 0 1-.078-.017.071.071 0 0 1-.04-.027.072.072 0 0 1-.011-.04V1.33A.2.2 0 0 1 11 1.161a.239.239 0 0 1 .147-.05h.312a.7.7 0 0 1 .167.017.364.364 0 0 1 .126.054.312.312 0 0 1 .09.092.629.629 0 0 1 .063.133L13 4.042h.014l1.136-2.627a.813.813 0 0 1 .072-.143.365.365 0 0 1 .086-.095.286.286 0 0 1 .1-.05.486.486 0 0 1 .132-.016h.327a.3.3 0 0 1 .086.013.174.174 0 0 1 .068.04.194.194 0 0 1 .047.067.254.254 0 0 1 .018.1v3.345a.071.071 0 0 1-.012.039.078.078 0 0 1-.043.027.486.486 0 0 1-.077.017 1.029 1.029 0 0 1-.243 0 .39.39 0 0 1-.079-.017.079.079 0 0 1-.041-.027.061.061 0 0 1-.012-.039V1.507h-.006L13.229 4.69a.125.125 0 0 1-.025.034.167.167 0 0 1-.048.024.385.385 0 0 1-.074.013.741.741 0 0 1-.101.006zm-4.9 0h-.147a.349.349 0 0 1-.083-.014.089.089 0 0 1-.041-.026.257.257 0 0 1-.025-.042l-.328-.886H5.868l-.313.874a.137.137 0 0 1-.023.044.124.124 0 0 1-.043.031.307.307 0 0 1-.079.019c-.03 0-.077.005-.135.005a1.185 1.185 0 0 1-.14-.007.152.152 0 0 1-.076-.027.069.069 0 0 1-.022-.058.382.382 0 0 1 .025-.1L6.344 1.2a.155.155 0 0 1 .031-.05.121.121 0 0 1 .056-.031.432.432 0 0 1 .095-.019h.303a.442.442 0 0 1 .1.016.133.133 0 0 1 .058.031.16.16 0 0 1 .033.053L8.3 4.579a.373.373 0 0 1 .025.1.07.07 0 0 1-.023.058.158.158 0 0 1-.078.025c-.03.002-.079.005-.144.005zM6.658 1.6L6 3.408h1.324zm44.5 3.171a.763.763 0 0 1-.122-.007.422.422 0 0 1-.076-.016.083.083 0 0 1-.041-.028.071.071 0 0 1-.013-.039V1.319a.185.185 0 0 1 .068-.16.247.247 0 0 1 .146-.048h.25a.619.619 0 0 1 .148.014.344.344 0 0 1 .107.046.428.428 0 0 1 .091.09 1.237 1.237 0 0 1 .093.145L52.7 3l.056.1c.036.063.071.126.1.187.053.095.1.187.148.275l.079.146.063.118.026.05.111.213V3.608 1.193a.06.06 0 0 1 .013-.036.093.093 0 0 1 .042-.03.3.3 0 0 1 .077-.018 1.171 1.171 0 0 1 .125-.009 1.116 1.116 0 0 1 .12.006.284.284 0 0 1 .077.018.093.093 0 0 1 .04.03.055.055 0 0 1 .013.036v3.359a.209.209 0 0 1-.02.1.194.194 0 0 1-.052.065.2.2 0 0 1-.071.036.3.3 0 0 1-.08.012H53.4a.58.58 0 0 1-.139-.015.323.323 0 0 1-.112-.057.572.572 0 0 1-.106-.111 1.469 1.469 0 0 1-.114-.18l-1.166-2.07a9.885 9.885 0 0 1-.357-.678H51.4c0 .123.007.254.009.413v2.619a.071.071 0 0 1-.013.039.089.089 0 0 1-.042.028.512.512 0 0 1-.078.016.915.915 0 0 1-.122 0zM81.1 4.75h-1.688a.215.215 0 0 1-.129-.043.181.181 0 0 1-.06-.154V1.184a.065.065 0 0 1 .012-.04.082.082 0 0 1 .041-.027.477.477 0 0 1 .079-.016.94.94 0 0 1 .121-.007.763.763 0 0 1 .124.006.469.469 0 0 1 .078.016.077.077 0 0 1 .041.027.065.065 0 0 1 .012.04v3.148H81.1a.081.081 0 0 1 .045.013.1.1 0 0 1 .033.037.227.227 0 0 1 .019.063.725.725 0 0 1 .005.1.55.55 0 0 1-.006.095.2.2 0 0 1-.019.065.1.1 0 0 1-.032.04.086.086 0 0 1-.045.006zM7.486.827h-.142a.705.705 0 0 1-.085-.015.174.174 0 0 1-.051-.02.213.213 0 0 1-.035-.027L6.719.279l-.47.472A.434.434 0 0 1 6.2.789a.186.186 0 0 1-.058.023.445.445 0 0 1-.089.012h-.132A.62.62 0 0 1 5.807.82.119.119 0 0 1 5.751.8.028.028 0 0 1 5.74.768.16.16 0 0 1 5.773.72l.661-.638a.2.2 0 0 1 .049-.04.26.26 0 0 1 .057-.027A.349.349 0 0 1 6.616 0H6.821A.3.3 0 0 1 6.9.015a.183.183 0 0 1 .05.026.352.352 0 0 1 .05.041l.63.638a.135.135 0 0 1 .033.05.028.028 0 0 1-.011.03.132.132 0 0 1-.059.019.849.849 0 0 1-.107.008z" class="cls-1" data-name="Shape" transform="translate(46.108 30.196)"/>
        <path id="Shape-12" d="M26.6 17.843c-2.9 0-4.821-.693-6.427-2.317l2.225-2.219a5.714 5.714 0 0 0 4.252 1.479 4.05 4.05 0 0 0 2.317-.558 1.851 1.851 0 0 0 .8-1.611 1.96 1.96 0 0 0-.543-1.479 2.634 2.634 0 0 0-1.558-.616l-2.125-.3a5.988 5.988 0 0 1-3.412-1.454 4.613 4.613 0 0 1-1.26-3.45 4.97 4.97 0 0 1 1.631-3.83A6.63 6.63 0 0 1 26.993 0a7.584 7.584 0 0 1 5.686 2.046L30.5 4.19a4.9 4.9 0 0 0-3.609-1.208c-1.652 0-2.719.87-2.719 2.218a1.691 1.691 0 0 0 .519 1.257 3.063 3.063 0 0 0 1.631.689l2.077.3A5.831 5.831 0 0 1 31.764 8.8a4.9 4.9 0 0 1 1.359 3.721 4.794 4.794 0 0 1-1.882 3.937 7.513 7.513 0 0 1-4.641 1.385zm31.936 0a6.438 6.438 0 0 1-4.772-1.922c-1.731-1.727-1.73-3.836-1.729-6.755v-.488c0-2.92 0-5.03 1.729-6.756a6.851 6.851 0 0 1 9.517 0c1.756 1.749 1.755 3.9 1.755 6.874v.25c0 2.975 0 5.124-1.755 6.874a6.4 6.4 0 0 1-4.748 1.923zm0-14.787a2.922 2.922 0 0 0-2.224.937c-.73.808-.841 1.831-.841 4.929 0 3.474.189 4.209.841 4.929a2.924 2.924 0 0 0 2.224.936 2.859 2.859 0 0 0 2.2-.936c.66-.731.866-1.507.866-4.929s-.206-4.2-.866-4.929a2.857 2.857 0 0 0-2.203-.937zM69.953 17.7H66.37L72.771.148h2.695l6.426 17.546h-3.584l-1.039-3.104h-6.253l-1.063 3.105zm4.252-12.376l-2.225 6.382h4.375L74.2 5.324zM43.727 17.695h-7.366V.148h7.069a5.792 5.792 0 0 1 4.007 1.337 4.724 4.724 0 0 1 1.43 3.592A4.075 4.075 0 0 1 46.693 8.7a4.1 4.1 0 0 1 2.423 3.943c0 3.116-2.065 5.052-5.389 5.052zM39.8 10.327v4.313h3.584a2.073 2.073 0 0 0 2.3-2.169 2.061 2.061 0 0 0-2.3-2.144zm0-7.123v4.041h3.361a2 2 0 0 0 2.274-2.02A2 2 0 0 0 43.159 3.2zM17.65 17.695h-3.436V.148h3.436v17.546zm-6.23 0H0V.148h3.436v14.491h7.984v3.055z" class="cls-1" data-name="Shape" transform="translate(46.108 6.177)"/>
    </g>
</svg>
