<svg xmlns="http://www.w3.org/2000/svg" width="21.315" height="21.315" viewBox="0 0 21.315 21.315">
    <g id="prefix__noun_logout_3011924" transform="translate(36.658 -11.342)">
        <path id="prefix__Path_1403" d="M14.408 20.921l1.658 1.658 5.921-5.921-5.921-5.921-1.658 1.658 3.079 3.079H6v2.368h11.427zM24.947 6H8.368A2.375 2.375 0 0 0 6 8.368v4.737h2.368V8.368h16.579v16.579H8.368V20.21H6v4.737a2.375 2.375 0 0 0 2.368 2.368h16.579a2.375 2.375 0 0 0 2.368-2.368V8.368A2.375 2.375 0 0 0 24.947 6z" data-name="Path 1403" transform="translate(-42.658 5.342)" style="fill:#003f8f"/>
    </g>
</svg>
