<?xml version="1.0" encoding="UTF-8" standalone="no"?>
<!-- Created with Inkscape (http://www.inkscape.org/) -->

<svg
   xmlns:dc="http://purl.org/dc/elements/1.1/"
   xmlns:cc="http://creativecommons.org/ns#"
   xmlns:rdf="http://www.w3.org/1999/02/22-rdf-syntax-ns#"
   xmlns:svg="http://www.w3.org/2000/svg"
   xmlns="http://www.w3.org/2000/svg"
   xmlns:sodipodi="http://sodipodi.sourceforge.net/DTD/sodipodi-0.dtd"
   xmlns:inkscape="http://www.inkscape.org/namespaces/inkscape"
   width="7.5244074mm"
   height="5.033247mm"
   viewBox="0 0 7.5244074 5.033247"
   version="1.1"
   id="svg877"
   inkscape:version="0.92.4 (5da689c313, 2019-01-14)"
   sodipodi:docname="microLogo.svg">
  <defs
     id="defs871" />
  <sodipodi:namedview
     id="base"
     pagecolor="#ffffff"
     bordercolor="#666666"
     borderopacity="1.0"
     inkscape:pageopacity="0.0"
     inkscape:pageshadow="2"
     inkscape:zoom="15.839192"
     inkscape:cx="5.7529379"
     inkscape:cy="9.7808744"
     inkscape:document-units="mm"
     inkscape:current-layer="layer1"
     showgrid="false"
     inkscape:pagecheckerboard="true"
     fit-margin-top="0"
     fit-margin-left="0"
     fit-margin-right="0"
     fit-margin-bottom="0"
     inkscape:window-width="1920"
     inkscape:window-height="1051"
     inkscape:window-x="-9"
     inkscape:window-y="-9"
     inkscape:window-maximized="1" />
  <metadata
     id="metadata874">
    <rdf:RDF>
      <cc:Work
         rdf:about="">
        <dc:format>image/svg+xml</dc:format>
        <dc:type
           rdf:resource="http://purl.org/dc/dcmitype/StillImage" />
        <dc:title></dc:title>
      </cc:Work>
    </rdf:RDF>
  </metadata>
  <g
     inkscape:label="Layer 1"
     inkscape:groupmode="layer"
     id="layer1"
     transform="translate(-105.09645,-102.47148)">
    <path
       id="Path_1095"
       d="m 108.13432,106.53659 a 1.6404167,1.6404167 0 0 1 -0.52546,0.0945 1.6475604,1.6475604 0 0 1 0,-3.29116 1.5986125,1.5986125 0 0 1 0.52546,0.0955 2.5291521,2.5291521 0 0 1 0.71887,-0.62971 2.4159104,2.4159104 0 0 0 -1.24354,-0.3339 2.5164521,2.5164521 0 0 0 0,5.0329 2.4685625,2.4685625 0 0 0 1.24354,-0.33364 2.3979187,2.3979187 0 0 1 -0.71887,-0.635 m 0.71887,-2.56143 a 1.5041562,1.5041562 0 0 1 0.71967,-0.54002 2.5434396,2.5434396 0 0 1 0.52572,1.55787 2.4870833,2.4870833 0 0 1 -0.52572,1.54358 1.4898687,1.4898687 0 0 1 -0.71967,-0.53975 1.7727083,1.7727083 0 0 0 0,-2.02168"
       class="cls-4"
       data-name="Path 1095"
       inkscape:connector-curvature="0"
       style="fill:#ffd400;fill-rule:evenodd;stroke-width:0.26458332" />
    <path
       id="Path_1096"
       d="m 110.09858,102.47153 a 2.5164521,2.5164521 0 1 1 -1.24539,4.69979 2.5455562,2.5455562 0 0 0 0.71993,-0.635 1.6581437,1.6581437 0 0 0 0.52573,0.0947 1.6472958,1.6472958 0 0 0 0,-3.29089 1.6073437,1.6073437 0 0 0 -0.52573,0.095 2.5286229,2.5286229 0 0 0 -0.71993,-0.62997 2.4368125,2.4368125 0 0 1 1.24539,-0.33364"
       class="cls-2"
       data-name="Path 1096"
       inkscape:connector-curvature="0"
       style="fill:#00468f;fill-rule:evenodd;stroke-width:0.26458332" />
    <path
       id="Path_1097"
       d="m 108.85319,103.97516 a 1.5292917,1.5292917 0 0 0 -0.71887,-0.54002 2.5439687,2.5439687 0 0 0 -0.52546,1.55787 2.4870833,2.4870833 0 0 0 0.52546,1.54358 1.4848417,1.4848417 0 0 0 0.71887,-0.53975 1.7795875,1.7795875 0 0 1 0,-2.02168"
       class="cls-2"
       data-name="Path 1097"
       inkscape:connector-curvature="0"
       style="fill:#00468f;fill-rule:evenodd;stroke-width:0.26458332" />
  </g>
</svg>
