<svg xmlns="http://www.w3.org/2000/svg" viewBox="0 0 30 30">
  <g>
    <path d="M6.542,25.657a.419.419,0,0,0,.325-.156c.175-.217,4.259-5.341,4.259-7.762a4.584,4.584,0,1,0-9.168,0c0,2.421,4.084,7.543,4.259,7.762A.419.419,0,0,0,6.542,25.657Zm0-11.668a3.755,3.755,0,0,1,3.751,3.75c0,1.617-2.464,5.152-3.751,6.826-1.287-1.673-3.751-5.208-3.751-6.826A3.755,3.755,0,0,1,6.542,13.989Z" fill="#231f20"/>
    <path d="M8.209,17.322a1.667,1.667,0,1,0-1.667,1.667A1.667,1.667,0,0,0,8.209,17.322Zm-2.5,0a.833.833,0,1,1,.833.834A.833.833,0,0,1,5.709,17.322Z" fill="#231f20"/>
    <path d="M20.253,2.276A3.953,3.953,0,0,0,16.3,6.229c0,2.036,3.213,5.828,3.579,6.253a.495.495,0,0,0,.75,0c.366-.425,3.579-4.217,3.579-6.253A3.953,3.953,0,0,0,20.253,2.276Zm0,4.942a1.483,1.483,0,1,1,1.483-1.483A1.483,1.483,0,0,1,20.253,7.218Z" fill="#231f20"/>
    <g>
      <path d="M8.334,26.18H7.686a.5.5,0,0,1,0-1h.648a.5.5,0,0,1,0,1Z" fill="#231f20"/>
      <path d="M26.211,26.18H25.2a.5.5,0,0,1,0-1h1.009a1.522,1.522,0,0,0,.215-.016.507.507,0,0,1,.567.422.5.5,0,0,1-.423.568A2.649,2.649,0,0,1,26.211,26.18Zm-2.307,0h-1.3a.5.5,0,0,1,0-1h1.3a.5.5,0,1,1,0,1Zm-2.595,0h-1.3a.5.5,0,0,1,0-1h1.3a.5.5,0,1,1,0,1Zm-2.6,0h-1.3a.5.5,0,0,1,0-1h1.3a.5.5,0,0,1,0,1Zm-2.595,0h-1.3a.5.5,0,1,1,0-1h1.3a.5.5,0,0,1,0,1Zm-2.6,0h-1.3a.5.5,0,1,1,0-1h1.3a.5.5,0,1,1,0,1Zm-2.6,0h-1.3a.5.5,0,0,1,0-1h1.3a.5.5,0,1,1,0,1Zm16.677-.644a.5.5,0,0,1-.38-.825,1.33,1.33,0,0,0,.317-.862.5.5,0,0,1,.5-.5.5.5,0,0,1,.5.5,2.332,2.332,0,0,1-.557,1.517A.5.5,0,0,1,27.605,25.536ZM28.042,23a.462.462,0,0,1-.5-.453v-.1a1.328,1.328,0,0,0-.276-.812.5.5,0,1,1,.792-.609,2.306,2.306,0,0,1,.484,1.421A.544.544,0,0,1,28.042,23Zm-1.454-1.842a.451.451,0,0,1-.1-.011,1.173,1.173,0,0,0-.27-.027h-.923a.5.5,0,0,1,0-1h.919a2.131,2.131,0,0,1,.478.048.5.5,0,0,1-.1.99ZM24,21.118H22.7a.5.5,0,0,1,0-1H24a.5.5,0,0,1,0,1Zm-2.6,0H20.1a.5.5,0,0,1,0-1h1.3a.5.5,0,0,1,0,1Zm-2.6,0h-1.3a.5.5,0,0,1,0-1h1.3a.5.5,0,0,1,0,1Zm-2.594,0h-.554a2.313,2.313,0,0,1-.922-.19.5.5,0,1,1,.4-.918,1.314,1.314,0,0,0,.526.108h.554a.5.5,0,0,1,0,1Zm-2.2-1.025a.5.5,0,0,1-.449-.279A2.332,2.332,0,0,1,13.4,18.2a.5.5,0,1,1,.968.248,1.329,1.329,0,0,0-.042.334,1.3,1.3,0,0,0,.136.586.5.5,0,0,1-.228.668A.484.484,0,0,1,14.012,20.093Zm.6-2.306a.5.5,0,0,1-.288-.91,2.318,2.318,0,0,1,1.336-.42h.181a.5.5,0,0,1,0,1h-.181a1.321,1.321,0,0,0-.761.239A.5.5,0,0,1,14.608,17.787Zm10.849-.33H24.92a.5.5,0,0,1,0-1h.537a1.544,1.544,0,0,0,.561-.105.5.5,0,1,1,.364.932A2.548,2.548,0,0,1,25.457,17.457Zm-1.835,0h-1.3a.5.5,0,1,1,0-1h1.3a.5.5,0,0,1,0,1Zm-2.595,0h-1.3a.5.5,0,1,1,0-1h1.3a.5.5,0,0,1,0,1Zm-2.6,0h-1.3a.5.5,0,0,1,0-1h1.3a.5.5,0,0,1,0,1Zm8.753-.95a.5.5,0,0,1-.422-.768A1.536,1.536,0,0,0,27,14.91l0-.1a.5.5,0,0,1,.462-.536.49.49,0,0,1,.535.462c0,.058.007.117.007.177a2.547,2.547,0,0,1-.4,1.366A.5.5,0,0,1,27.185,16.507Zm-.165-2.418a.5.5,0,0,1-.382-.176,1.533,1.533,0,0,0-.821-.506.5.5,0,1,1,.231-.973,2.521,2.521,0,0,1,1.353.832.5.5,0,0,1-.381.823Zm-2.38-.725h-1.3a.5.5,0,0,1,0-1h1.3a.5.5,0,0,1,0,1Z" fill="#231f20"/>
      <path d="M22.012,13.364h-.648a.5.5,0,0,1,0-1h.648a.5.5,0,0,1,0,1Z" fill="#231f20"/>
    </g>
  </g>
</svg>
