<svg xmlns="http://www.w3.org/2000/svg" width="18" height="18" viewBox="0 0 18 18">
    <g id="Group_540" data-name="Group 540" transform="translate(-5 -956.362)">
        <path id="Path_1178" d="M10.006 956.362a.594.594 0 0 0-.6.587v2.256a1.8 1.8 0 1 0 1.2 0v-2.256a.594.594 0 0 0-.6-.587zm8 0a.594.594 0 0 0-.6.587v2.256a1.8 1.8 0 1 0 1.2 0v-2.256a.594.594 0 0 0-.6-.587zm-10.8 1.174A2.191 2.191 0 0 0 5 959.695V972.2a2.191 2.191 0 0 0 2.206 2.158h13.588A2.191 2.191 0 0 0 23 972.2v-12.51a2.191 2.191 0 0 0-2.206-2.158H19.6a.587.587 0 1 0 0 1.174h1.194a.982.982 0 0 1 1.006.984v3.32H6.2v-3.32a.982.982 0 0 1 1.006-.984H8.4a.587.587 0 1 0 0-1.174H7.206zm4.394 0a.587.587 0 1 0 0 1.174h4.8a.587.587 0 1 0 0-1.174h-4.8zm-1.594 2.739a.587.587 0 1 1-.6.587.585.585 0 0 1 .6-.587zm8 0a.587.587 0 1 1-.6.587.585.585 0 0 1 .6-.587zM6.2 964.188h15.6v8.012a.982.982 0 0 1-1.006.984H7.206A.982.982 0 0 1 6.2 972.2z" fill="#1D1D1B" data-name="Path 1178"/>
    </g>
</svg>
