<svg xmlns="http://www.w3.org/2000/svg" viewBox="0 0 30 30">
  <path d="M15.63,21.479a.547.547,0,1,0-.547.548.546.546,0,0,0,.547-.548ZM13.8,22.733a.334.334,0,1,0-.334.334.334.334,0,0,0,.334-.334Zm3.315,0a.334.334,0,1,0-.334.334.334.334,0,0,0,.334-.334Zm-2.876-6.6v3.1a.2.2,0,0,0,.2.192h1.274a.2.2,0,0,0,.2-.192v-3.1c0-.106-.066-.167-.2-.236a2.478,2.478,0,0,0-.654-.1,2.27,2.27,0,0,0-.62.1c-.125.059-.2.13-.2.236Zm-2.079.186.246,2.91a.2.2,0,0,0,.205.192h1.2a.2.2,0,0,0,.205-.192v-3.08a.274.274,0,0,0-.205-.236,1.97,1.97,0,0,0-1.458.069.334.334,0,0,0-.195.337Zm5.851,0a.332.332,0,0,0-.2-.337,2.031,2.031,0,0,0-1.481-.069.276.276,0,0,0-.209.236v3.08a.2.2,0,0,0,.209.192h1.221a.2.2,0,0,0,.208-.192l.25-2.91Zm-5.431-2.795v.989a2.363,2.363,0,0,1,.229-.078s.234-.063.6-.131a1.378,1.378,0,0,0,.4.428,2.241,2.241,0,0,0,2.055.209,1.662,1.662,0,0,0,.7-.521,1.7,1.7,0,0,0,.1-.145c.437.074.722.15.722.15.068.021.133.043.2.068v-.969h-.716a2.8,2.8,0,0,0-.031-.433h.945a.2.2,0,0,1,.2.2v1.416a1.368,1.368,0,0,1,.584,1.191s-.087,2.109-.228,3.617c-.13,1.395-.373,3.373-.373,3.373-.069.515-.342.608-.778.679a19.56,19.56,0,0,1-2.072.105,19.634,19.634,0,0,1-2.075-.105c-.45-.043-.709-.164-.778-.679,0,0-.225-1.954-.355-3.349-.141-1.508-.245-3.641-.245-3.641a1.2,1.2,0,0,1,.52-1.172V13.29a.2.2,0,0,1,.2-.2h1.049a1.387,1.387,0,0,0-.167.433Zm2.86-.433h.379a1.569,1.569,0,0,1,.022.326c0,.039,0,.075-.007.107h-.269a1.007,1.007,0,0,0-.125-.433Z" fill="#231f20"/>
  <path d="M15.483,9.4a1.212,1.212,0,0,0-.58.317.793.793,0,0,0-.28.557.816.816,0,0,0,.131.437.835.835,0,0,0,.426.356c.062.016.093.044.091.085,0,.017-.027.03-.081.04a1.393,1.393,0,0,1-.741-.447,1.108,1.108,0,0,1-.274-.753,1.463,1.463,0,0,1,.349-.829,1.66,1.66,0,0,1,.8-.531l-.188-1.044a6.5,6.5,0,0,0-1.319,1.135,2.2,2.2,0,0,0-.564,1.31,1.578,1.578,0,0,0,.127.626,1.676,1.676,0,0,0,.4.559,2.261,2.261,0,0,0,1.462.566,4.175,4.175,0,0,0,.669-.075L15.483,9.4Zm.247-.021.434,2.268a1.141,1.141,0,0,0,.824-1.158,1.235,1.235,0,0,0-.187-.55,1.144,1.144,0,0,0-.436-.4,1.4,1.4,0,0,0-.635-.161Zm-.574-3.061a1.605,1.605,0,0,0,.39-.29,3.6,3.6,0,0,0,.424-.485,2.98,2.98,0,0,0,.337-.567,1.475,1.475,0,0,0,.14-.543.862.862,0,0,0-.016-.213.353.353,0,0,0-.105-.244.367.367,0,0,0-.246-.091.694.694,0,0,0-.561.307,2.551,2.551,0,0,0-.334.653,2.884,2.884,0,0,0-.159.755,1.969,1.969,0,0,0,.13.718Zm-.222.165a5.3,5.3,0,0,1-.195-1.456,3.851,3.851,0,0,1,.148-.883,2.581,2.581,0,0,1,.323-.706,1.46,1.46,0,0,1,.453-.451.736.736,0,0,1,.315-.135.176.176,0,0,1,.113.044,1.17,1.17,0,0,1,.126.134,2.718,2.718,0,0,1,.53,1.8,3.283,3.283,0,0,1-.188.969,3.531,3.531,0,0,1-1.2,1.622l.23,1.161c.15-.014.254-.019.311-.018a1.7,1.7,0,0,1,.693.161,1.574,1.574,0,0,1,.525.395,1.674,1.674,0,0,1,.322.556,1.7,1.7,0,0,1,.1.642,1.572,1.572,0,0,1-.351.936,1.825,1.825,0,0,1-.966.6c.02.144.058.351.116.621s.1.486.127.645a2.279,2.279,0,0,1,.03.461,1.033,1.033,0,0,1-.22.609,1.278,1.278,0,0,1-.546.4,1.863,1.863,0,0,1-1.7-.17.877.877,0,0,1-.408-.746.978.978,0,0,1,.13-.385A.833.833,0,0,1,14.038,13a.808.808,0,0,1,.417-.115.777.777,0,0,1,.372.105.727.727,0,0,1,.268.263.627.627,0,0,1,.092.362.565.565,0,0,1-.22.429.744.744,0,0,1-.519.166l-.079,0a.749.749,0,0,0,.639.288,1.4,1.4,0,0,0,.468-.068,1.279,1.279,0,0,0,.412-.209.657.657,0,0,0,.231-.293,1.281,1.281,0,0,0,.1-.492,1.926,1.926,0,0,0-.03-.42c-.024-.141-.063-.326-.119-.554s-.093-.4-.116-.526a2.819,2.819,0,0,1-.636.05,2.761,2.761,0,0,1-1.035-.228,2.65,2.65,0,0,1-.841-.572,2.532,2.532,0,0,1-.547-.814,2.243,2.243,0,0,1-.174-.933,2.362,2.362,0,0,1,.234-.848,3.5,3.5,0,0,1,.5-.755,6.583,6.583,0,0,1,.624-.634q.321-.284.856-.719Z" fill="#231f20"/>
  <path d="M19.381,12.407,17.567,12.3a.061.061,0,1,1,0-.122l1.747-.13a5.112,5.112,0,0,1-.059-.7l-1.309-.111a.061.061,0,1,1,0-.122L19.264,11a3.94,3.94,0,0,1,.114-.713c-.4-.014-.883-.084-1.317-.124a.061.061,0,1,1,0-.122L19.5,9.917a3.648,3.648,0,0,1,.334-.667l-2.177-.122a.062.062,0,1,1,0-.123l2.442-.12a4.324,4.324,0,0,1,.662-.646L16.415,8.2a.062.062,0,1,1,0-.123l4.871-.206q.107-.066.222-.129c1.384-.767,2.8-.428,3.267.415a1.123,1.123,0,0,1-.428,1.631,1.2,1.2,0,0,1-1.314-2,1.514,1.514,0,0,0-1.157.2c-1.408.781-1.116,2.334-.237,4.028a13.779,13.779,0,0,1,2.171,6.9,8.713,8.713,0,0,1-8.787,8.532A8.647,8.647,0,0,1,6.3,18.772c0-2.007.495-3.6,2.153-6.661,1-1.817,1.426-3.518-.07-4.347a1.512,1.512,0,0,0-1.156-.2,1.2,1.2,0,0,1-1.315,2,1.124,1.124,0,0,1-.428-1.631c.468-.844,1.883-1.183,3.268-.415,2.328,1.29,2.694,3.417,1.81,5.69a.393.393,0,0,1-.034.114,13.635,13.635,0,0,0-1.561,5.817,6.106,6.106,0,0,0,12.2-.19,11.79,11.79,0,0,0-1.1-4.684,7.78,7.78,0,0,1-.685-1.851Z" fill="#231f20"/>
</svg>
