<svg xmlns="http://www.w3.org/2000/svg" width="20" height="18" viewBox="0 0 20 18">
    <g id="Carris_Icones_Azul_Carris_Upload" data-name="Carris / Icones / Azul Carris / Upload">
        <g id="Group">
            <path id="Path" d="M6.344 4.127a.316.316 0 0 0 .236-.11.408.408 0 0 0 0-.53L3.574.11a.309.309 0 0 0-.474 0l-3 3.376a.408.408 0 0 0 0 .53.309.309 0 0 0 .472 0L3.005 1.28v8.847a.356.356 0 0 0 .334.375.356.356 0 0 0 .334-.375V1.28l2.436 2.736a.308.308 0 0 0 .235.111z" fill="#003F8F" transform="translate(6.678 7.497)"/>
            <path id="Path-2" d="M16.406 4.312A4.783 4.783 0 0 0 7.2 3.028a3.375 3.375 0 0 0-.956-.138 3.262 3.262 0 0 0-3.283 3.015 3.85 3.85 0 0 0 .983 7.595h4.069a.327.327 0 1 0 0-.654H3.945a3.2 3.2 0 0 1-.594-6.357l.281-.05-.011-.331a2.6 2.6 0 0 1 2.62-2.564 2.665 2.665 0 0 1 1.032.207l.347.145.106-.354a4.106 4.106 0 0 1 8.024 1.043l.005.266.268.049a4 4 0 0 1-.305 7.936l-.124.01H12.02a.327.327 0 1 0 0 .654h3.741l.266-.028a4.669 4.669 0 0 0 .379-9.161z" fill="#003F8F" data-name="Path"/>
        </g>
    </g>
</svg>
