<svg xmlns="http://www.w3.org/2000/svg" viewBox="0 0 28.361 28.361"><path d="M9.441,22.372l0-1.043a.847.847,0,0,1,.251-.606l.793-.79a.852.852,0,0,0,.251-.6V15.385a.85.85,0,0,1,.246-.6l2.826-2.85a.958.958,0,0,0-1.355-1.355L9.659,13.372l-1.5,1.5a.716.716,0,0,1-1.015,0h0a.718.718,0,0,1,0-1.016l1.859-1.827" fill="none" stroke="#231f20" stroke-linecap="round" stroke-linejoin="round" stroke-width="0.862"/><path d="M9.006,10.3H8.342a.849.849,0,0,0-.6.25L4.513,13.776a.85.85,0,0,0-.249.6v5.055a.848.848,0,0,0,.249.6l.793.793a.853.853,0,0,1,.25.6v2.6" fill="none" stroke="#231f20" stroke-linecap="round" stroke-linejoin="round" stroke-width="0.862"/><line x1="10.731" y1="24.097" x2="4.264" y2="24.097" fill="none" stroke="#231f20" stroke-linecap="round" stroke-linejoin="round" stroke-width="0.862"/><path d="M18.438,8.573a.757.757,0,0,1-.809-.8V7.222a.809.809,0,0,1,1.617,0v.549A.756.756,0,0,1,18.438,8.573Zm.187-1.328c0-.168-.08-.225-.187-.225s-.187.057-.187.225v.5c0,.168.08.226.187.226s.187-.058.187-.226Zm2.508,3.483a.757.757,0,0,1-.809-.8V9.376a.809.809,0,0,1,1.617,0v.549A.757.757,0,0,1,21.133,10.728ZM21.32,9.4c0-.168-.08-.226-.187-.226s-.188.058-.188.226v.5c0,.168.08.226.188.226s.187-.058.187-.226Zm-2.185,1.329h-.762L20.425,6.42h.763Z" fill="#231f20"/><path d="M14.859,12.887h3.633a1.294,1.294,0,1,1,2.587,0h2.156a.863.863,0,0,0,.862-.863v-6.9a.862.862,0,0,0-.862-.862H21.079a1.294,1.294,0,0,1-2.587,0h-7.33a.862.862,0,0,0-.862.862v5.605" fill="none" stroke="#231f20" stroke-linecap="round" stroke-linejoin="round" stroke-width="0.862"/><polyline points="15.474 5.988 12.024 5.988 12.024 8.575" fill="none" stroke="#231f20" stroke-linecap="round" stroke-linejoin="round" stroke-width="0.862"/></svg>