<svg xmlns="http://www.w3.org/2000/svg" viewBox="0 0 30 30">
  <path d="M28.824,9.241l-.9-.375a7.942,7.942,0,0,0,1.644-3.611,3.638,3.638,0,1,0-7.275,0,3.741,3.741,0,0,0,.374,1.419l-.838-.349a.19.19,0,0,0-.13,0,.074.074,0,0,1-.061,0,.177.177,0,0,0-.129,0L14.68,9.174,7.846,6.325a.175.175,0,0,0-.128,0,.1.1,0,0,1-.061,0,.174.174,0,0,0-.128,0L.535,9.241a.413.413,0,0,0-.254.38v18.1a.407.407,0,0,0,.184.343.419.419,0,0,0,.388.039l6.835-2.849L14.521,28.1a.424.424,0,0,0,.317,0l6.834-2.849L28.505,28.1a.417.417,0,0,0,.159.031.417.417,0,0,0,.414-.413V9.621A.413.413,0,0,0,28.824,9.241Zm-2.89-5.8A1.364,1.364,0,1,1,24.569,4.8,1.364,1.364,0,0,1,25.934,3.436ZM7.274,24.53,3.024,26.3l1.4-3.4c.278-.068,1.616-.393,2.852-.771Zm0-3.166c-1.093.341-2.366.672-3.2.868a.371.371,0,0,0-.255.218L2.066,26.7l-.957.4V18.223a.141.141,0,0,0,.049-.02l4.2-2.712A1.329,1.329,0,0,0,7.274,15.3Zm-1.7-6.933a.647.647,0,1,1,.647.647A.647.647,0,0,1,5.578,14.431Zm1.7-1.045-.092.06a1.357,1.357,0,0,0-.957-.4,1.38,1.38,0,0,0-1.3,1.851L1.109,17.364V9.9l6.165-2.57ZM8.1,7.327,14.266,9.9v6.83l-.386-1.916a.368.368,0,0,0-.145-.225l-3.717-2.692a.369.369,0,0,0-.213-.07h0a.35.35,0,0,0-.2.059l-1.5.971Zm0,6.4,1.689-1.091,3.4,2.462.422,2.089a1.356,1.356,0,0,0-.671,1.162,1.066,1.066,0,0,0,.057.311l-2.16,1.38A1.352,1.352,0,0,0,9.775,19.5a1.384,1.384,0,0,0-1.382,1.382.338.338,0,0,0,.015.09c-.075.029-.163.06-.252.09l-.054.019ZM9.456,25.094,8.1,24.53V21.865c.228-.079.408-.146.559-.206a1.356,1.356,0,0,0,.959.583Zm-.329-4.211a.648.648,0,1,1,.648.647A.648.648,0,0,1,9.127,20.883ZM14.266,27.1l-4.094-1.706.187-3.261a1.38,1.38,0,0,0,.8-1.249.479.479,0,0,0-.024-.138l-.005-.021,2.219-1.418a1.372,1.372,0,0,0,.773.386l.148.728Zm.055-8.1a.648.648,0,1,1,.647-.648A.649.649,0,0,1,14.321,19Zm.773,8.1V22.056l.721.333,0,.01a.474.474,0,0,0-.022.128,1.383,1.383,0,0,0,1.382,1.381,1.351,1.351,0,0,0,.987-.437l.506.233,0,1.906Zm1.43-4.572a.647.647,0,1,1,.648.646A.648.648,0,0,1,16.524,22.527Zm4.734,2L19.4,25.3l0-1.834a.37.37,0,0,0-.214-.333l-.686-.316a1.023,1.023,0,0,0,.054-.294,1.352,1.352,0,0,0-.544-1.069l1.521-3.721a1.408,1.408,0,0,0,.475.085,1.381,1.381,0,0,0,1.254-.8Zm-1.9-8.088a.647.647,0,1,1,.647.646A.648.648,0,0,1,19.357,16.442Zm1.9-.8-.122.047A1.355,1.355,0,0,0,20,15.06a1.383,1.383,0,0,0-1.381,1.382,1.346,1.346,0,0,0,.3.833l-1.593,3.9-.013,0a.55.55,0,0,0-.148-.026,1.348,1.348,0,0,0-1.084.563l-.9-.415-.1-.465V19.465a1.329,1.329,0,0,0,0-2.233V9.9l6.164-2.57Zm.828-8.317,1.177.49a25.051,25.051,0,0,0,2.244,3.094l-.626,3.36-2.8,1.06ZM28.251,27.1,22.086,24.53V16.115l3.249-1.231a.372.372,0,0,0,.23-.275l.662-3.563a.482.482,0,0,0,.051-.038c.124-.144.6-.707,1.155-1.452l.818.341Z"/>
</svg>
