<svg xmlns="http://www.w3.org/2000/svg" viewBox="0 0 30 30">
  <g>
    <path d="M14.985,11.965a5.243,5.243,0,0,1,0,6.062,4.58,4.58,0,0,0,2.183,1.615,7.371,7.371,0,0,0,1.6-4.629,7.555,7.555,0,0,0-1.6-4.667A4.6,4.6,0,0,0,14.985,11.965Z" fill="#231f20"/>
    <path d="M14.985,11.965a4.608,4.608,0,0,0-2.173-1.619,7.546,7.546,0,0,0-1.594,4.667,7.362,7.362,0,0,0,1.594,4.629,4.5,4.5,0,0,0,2.173-1.615,5.306,5.306,0,0,1,0-6.062Z" fill="#231f20"/>
    <path d="M18.766,7.455a7.354,7.354,0,0,0-3.781,1.007,7.563,7.563,0,0,1,1.636,1.259,7.435,7.435,0,0,1,.547.625,4.918,4.918,0,0,1,1.6-.289,4.763,4.763,0,0,1,4.75,4.932,4.745,4.745,0,0,1-4.75,4.94,5.053,5.053,0,0,1-1.6-.287,7.484,7.484,0,0,1-2.183,1.9,7.621,7.621,0,0,0,3.781,1,7.545,7.545,0,1,0,0-15.09Z" fill="#231f20"/>
    <path d="M12.812,19.642a4.959,4.959,0,0,1-1.594.287,4.747,4.747,0,0,1-4.756-4.94,4.765,4.765,0,0,1,4.756-4.932,4.841,4.841,0,0,1,1.594.289,7.551,7.551,0,0,1,2.173-1.884,7.3,7.3,0,0,0-3.767-1.007,7.545,7.545,0,1,0,3.767,14.087A7.211,7.211,0,0,1,12.812,19.642Z" fill="#231f20"/>
  </g>
</svg>
