<svg xmlns="http://www.w3.org/2000/svg" width="17.802" height="17.802" viewBox="0 0 17.802 17.802">
    <defs>
        <style>
            .cls-1{fill:#fff}
        </style>
    </defs>
    <path id="i" d="M12.672 17.8h-7.56a4.993 4.993 0 0 1-2.574-.7 5.1 5.1 0 0 1-1.854-1.863A5.041 5.041 0 0 1 0 12.672V5.13a5.041 5.041 0 0 1 .684-2.565A5.1 5.1 0 0 1 2.538.7 4.993 4.993 0 0 1 5.112 0h7.56a5.088 5.088 0 0 1 2.592.7A5.209 5.209 0 0 1 17.1 2.538a5.088 5.088 0 0 1 .7 2.592v7.542a5.088 5.088 0 0 1-.7 2.592 5.209 5.209 0 0 1-1.836 1.836 5.088 5.088 0 0 1-2.592.7zM5.112 1.764a3.278 3.278 0 0 0-1.683.45 3.357 3.357 0 0 0-1.215 1.224 3.323 3.323 0 0 0-.45 1.692v7.542a3.323 3.323 0 0 0 .45 1.692 3.357 3.357 0 0 0 1.215 1.224 3.278 3.278 0 0 0 1.683.45h7.56a3.352 3.352 0 0 0 3.366-3.366V5.13a3.352 3.352 0 0 0-3.366-3.366zM8.9 13.518a4.569 4.569 0 0 1-2.321-.618 4.62 4.62 0 0 1-1.692-1.683A4.523 4.523 0 0 1 4.266 8.9 4.471 4.471 0 0 1 4.9 6.588a4.711 4.711 0 0 1 1.688-1.683 4.618 4.618 0 0 1 4.626 0A4.637 4.637 0 0 1 12.9 6.588a4.618 4.618 0 0 1 0 4.626 4.637 4.637 0 0 1-1.686 1.686 4.523 4.523 0 0 1-2.314.618zm-.009-7.47a2.781 2.781 0 0 0-1.431.387A2.943 2.943 0 0 0 6.417 7.47a2.732 2.732 0 0 0-.387 1.422 2.781 2.781 0 0 0 .387 1.431 2.918 2.918 0 0 0 1.044 1.044 2.839 2.839 0 0 0 2.862 0 2.918 2.918 0 0 0 1.044-1.044 2.781 2.781 0 0 0 .387-1.431 2.732 2.732 0 0 0-.387-1.422 2.943 2.943 0 0 0-1.044-1.035 2.781 2.781 0 0 0-1.431-.387zm4.7-.684a1.2 1.2 0 0 1-.864-.351 1.153 1.153 0 0 1-.36-.855 1.229 1.229 0 0 1 1.223-1.224 1.153 1.153 0 0 1 .855.36 1.2 1.2 0 0 1 .351.864 1.2 1.2 0 0 1-1.206 1.206z" class="cls-1"/>
</svg>
