<svg xmlns="http://www.w3.org/2000/svg" id="Iconografia_Utilizador" width="20" height="20" data-name="Iconografia / Utilizador" viewBox="0 0 20 20">
    <clipPath id="clip-path">
        <path id="Clip_2" d="M9.808 0c6.731 0 9.551 5.384 9.615 9.615a9.515 9.515 0 0 1-9.615 9.808C3.554 19.512 0 13.6 0 9.615A9.937 9.937 0 0 1 9.808 0z" fill="none" data-name="Clip 2"/>
    </clipPath>
    <path id="Oval" d="M10 20A10 10 0 0 1 6.108.786a10 10 0 0 1 7.785 18.428A9.937 9.937 0 0 1 10 20zM10 .769a9.233 9.233 0 0 0-3.593 17.736 9.233 9.233 0 0 0 7.186-17.01A9.173 9.173 0 0 0 10 .769z" fill="#003F8F"/>
    <g id="Group_3" data-name="Group 3" transform="translate(.385 .385)">
        <path id="Clip_2-2" d="M9.808 0c6.731 0 9.551 5.384 9.615 9.615a9.515 9.515 0 0 1-9.615 9.808C3.554 19.512 0 13.6 0 9.615A9.937 9.937 0 0 1 9.808 0z" fill="none" data-name="Clip 2"/>
        <g id="Group_3-2" style="clip-path:url(#clip-path)" data-name="Group 3">
            <g id="Fill_1" fill="none" stroke-miterlimit="10" data-name="Fill 1">
                <path d="M3.693 1.51a4.581 4.581 0 0 0-.335 3 .738.738 0 0 0-.369.658 1.244 1.244 0 0 0 .169.707.766.766 0 0 0 .536.64c.037.135.08.267.129.395l.01.024v.011a3.706 3.706 0 0 0 .923 1.365c0 .062-.006.121-.012.178-.045.443.087.767-1.171 1.3S.422 11.164.034 12.024s2.576 3.49 6.511 3.49a10.525 10.525 0 0 0 6.848-3.09s.259.564-.185-.493-2.358-1.606-3.616-2.141-1.086-.858-1.131-1.3a2.551 2.551 0 0 1-.013-.2 3.717 3.717 0 0 0 .895-1.345l.014-.045c.048-.126.091-.258.128-.392a.775.775 0 0 0 .52-.637 1.244 1.244 0 0 0 .169-.707.721.721 0 0 0-.4-.673v-.017a9.7 9.7 0 0 0-.289-2.964C9.432 1.382 9.1 0 6.545 0a3.8 3.8 0 0 0-2.852 1.51z" stroke="none" transform="translate(3.071 4.096)"/>
                <path d="M6.545 0C4.616.109 3.693 1.51 3.693 1.51c-.335.668-.638 1.947-.335 2.998-.178.086-.332.275-.369.658-.031.316.104.594.169.707.065.284.238.592.535.64.037.135.08.267.13.394.002.009.006.017.01.025l.004.011c.211.538.53 1.009.919 1.367a2.854 2.854 0 0 1-.013.177c-.045.444.087.767-1.17 1.302-1.258.534-3.151 1.375-3.539 2.235-.388.86 2.576 3.49 6.51 3.49 3.935 0 6.848-3.091 6.848-3.091s.07.15.075.15c.006 0-.045-.132-.26-.643-.445-1.058-2.358-1.607-3.616-2.141-1.257-.534-1.085-.858-1.13-1.301a3.082 3.082 0 0 1-.014-.202c.378-.355.688-.818.895-1.345l.015-.039c.049-.126.091-.257.128-.392.289-.056.456-.358.52-.637.065-.113.2-.391.17-.707-.04-.407-.211-.595-.403-.673v-.017c.12-.39-.077-2.35-.287-2.966C9.432 1.382 9.095 0 6.545 0m-.028-1h.028c1.253 0 2.251.293 2.966.871.426.344.73.773.906 1.277l.005.01.01.03c.177.52.28 1.426.315 1.791.048.483.063.835.062 1.094.174.231.317.552.36.996.049.49-.098.91-.226 1.17-.12.401-.341.733-.628.958a4.986 4.986 0 0 1-.044.114c-.19.483-.454.93-.774 1.315.083.052.23.134.485.243.216.091.457.185.713.285 1.362.53 2.906 1.133 3.434 2.388.1.239.171.41.217.524.08.2.248.619-.045 1.06l-.297.447h-.371c-1.053.935-3.706 2.94-7.088 2.94-1.959 0-3.535-.58-4.512-1.066-1.196-.596-2.167-1.38-2.665-2.15-.49-.757-.403-1.334-.245-1.684.472-1.048 1.964-1.855 4.059-2.745.253-.108.406-.19.495-.246a4.838 4.838 0 0 1-.769-1.307l-.001-.004a2.154 2.154 0 0 1-.038-.097 1.877 1.877 0 0 1-.649-.975 2.2 2.2 0 0 1-.226-1.17 1.99 1.99 0 0 1 .28-.876c-.151-1.133.129-2.343.526-3.132l.026-.052.032-.049C2.907.886 4.085-.863 6.488-.998L6.517-1z" fill="#003F8F" stroke="none" transform="translate(3.071 4.096)"/>
            </g>
        </g>
    </g>
</svg>
