<?xml version="1.0" encoding="UTF-8" standalone="no"?>
<svg
   xmlns:dc="http://purl.org/dc/elements/1.1/"
   xmlns:cc="http://creativecommons.org/ns#"
   xmlns:rdf="http://www.w3.org/1999/02/22-rdf-syntax-ns#"
   xmlns:svg="http://www.w3.org/2000/svg"
   xmlns="http://www.w3.org/2000/svg"
   xmlns:sodipodi="http://sodipodi.sourceforge.net/DTD/sodipodi-0.dtd"
   xmlns:inkscape="http://www.inkscape.org/namespaces/inkscape"
   id="Iconografia_Search"
   width="19.434181"
   height="19.848957"
   data-name="Iconografia / Search"
   viewBox="0 0 19.434181 19.848957"
   version="1.1"
   sodipodi:docname="icon-search-2.svg"
   inkscape:version="0.92.4 (5da689c313, 2019-01-14)">
  <metadata
     id="metadata11">
    <rdf:RDF>
      <cc:Work
         rdf:about="">
        <dc:format>image/svg+xml</dc:format>
        <dc:type
           rdf:resource="http://purl.org/dc/dcmitype/StillImage" />
        <dc:title></dc:title>
      </cc:Work>
    </rdf:RDF>
  </metadata>
  <sodipodi:namedview
     pagecolor="#ffffff"
     bordercolor="#666666"
     borderopacity="1"
     objecttolerance="10"
     gridtolerance="10"
     guidetolerance="10"
     inkscape:pageopacity="0"
     inkscape:pageshadow="2"
     inkscape:window-width="2880"
     inkscape:window-height="1586"
     id="namedview9"
     showgrid="false"
     borderlayer="false"
     inkscape:pagecheckerboard="true"
     fit-margin-top="0"
     fit-margin-left="0"
     fit-margin-right="0"
     fit-margin-bottom="0"
     inkscape:zoom="11.79823"
     inkscape:cx="9.826296"
     inkscape:cy="9.8478027"
     inkscape:window-x="-11"
     inkscape:window-y="-11"
     inkscape:window-maximized="1"
     inkscape:current-layer="Iconografia_Search" />
  <path
     id="Rectangle"
     d="m 13.492585,14.342921 0.549422,-0.560736 5.275016,5.385326 a 0.4,0.4 0 0 1 0,0.565685 0.383,0.383 0 0 1 -0.548714,0 z"
     fill="#003F8F"
     inkscape:connector-curvature="0"
     style="fill:#e6e6e6" />
  <path
     id="Oval"
     d="m 8.1472958,16.584654 a 7.973,7.973 0 0 1 -3.171,-0.652 8.113,8.113 0 0 1 -2.589,-1.777 8.275,8.275 0 0 1 -1.74700003,-2.636 8.457,8.457 0 0 1 0,-6.4560004 8.275,8.275 0 0 1 1.74600003,-2.635 8.113,8.113 0 0 1 2.59,-1.77699999 8.041,8.041 0 0 1 6.3420002,0 8.113,8.113 0 0 1 2.589,1.77699999 8.275,8.275 0 0 1 1.746,2.636 8.457,8.457 0 0 1 0,6.4560004 8.275,8.275 0 0 1 -1.746,2.636 8.113,8.113 0 0 1 -2.589,1.777 7.973,7.973 0 0 1 -3.1710002,0.651 z m 0,-15.80000039 a 7.222,7.222 0 0 0 -2.873,0.58999999 7.35,7.35 0 0 0 -2.346,1.61 7.5,7.5 0 0 0 -1.581,2.384 7.661,7.661 0 0 0 0,5.8480004 7.5,7.5 0 0 0 1.581,2.383 7.35,7.35 0 0 0 2.346,1.61 7.284,7.284 0 0 0 5.7450002,0 7.349,7.349 0 0 0 2.346,-1.61 7.5,7.5 0 0 0 1.582,-2.388 7.661,7.661 0 0 0 0,-5.8480004 7.5,7.5 0 0 0 -1.582,-2.388 7.35,7.35 0 0 0 -2.346,-1.61 7.222,7.222 0 0 0 -2.8720002,-0.58599999 z"
     fill="#003F8F"
     inkscape:connector-curvature="0"
     style="fill:#e6e6e6" />
</svg>
