<svg xmlns="http://www.w3.org/2000/svg" id="Iconografia_Alerta" width="21" height="20" data-name="Iconografia / Alerta" viewBox="0 0 21 20">
    <path id="Shape" d="M17.512 20H3.489a3.382 3.382 0 0 1-3.124-1.517 3.558 3.558 0 0 1 .241-3.531l7.1-12.931A3.325 3.325 0 0 1 10.5 0a3.324 3.324 0 0 1 2.792 2.02l7.1 12.932a3.561 3.561 0 0 1 .241 3.531A3.381 3.381 0 0 1 17.512 20zM10.5 1.175c-.652 0-1.288.5-1.792 1.422L1.6 15.528a2.434 2.434 0 0 0-.25 2.362 2.31 2.31 0 0 0 2.133.934h14.028a2.312 2.312 0 0 0 2.133-.934 2.434 2.434 0 0 0-.251-2.362L12.291 2.6c-.504-.92-1.14-1.425-1.791-1.425z" fill="#ED1C24"/>
    <path id="Path" d="M1.224 7.763V.659A.637.637 0 0 0 .612 0 .637.637 0 0 0 0 .659v7.1a.637.637 0 0 0 .612.659.637.637 0 0 0 .612-.655z" fill="#ED1C24" transform="translate(9.764 5.636)"/>
    <path id="Path-2" d="M1.733.932A.9.9 0 0 0 .867 0 .9.9 0 0 0 0 .932a.9.9 0 0 0 .867.933.9.9 0 0 0 .866-.933z" fill="#ED1C24" data-name="Path" transform="translate(9.509 15.13)"/>
</svg>
