<svg xmlns="http://www.w3.org/2000/svg" width="20" height="20" viewBox="0 0 20 20">
    <g id="Group_657" data-name="Group 657" transform="translate(18924.5 19584)">
        <path id="Shape" d="M17.222 20H2.778A2.781 2.781 0 0 1 0 17.222V4.445a2.781 2.781 0 0 1 2.778-2.778h1.666V0h1.112v1.667h8.888V0h1.111v1.667h1.667A2.782 2.782 0 0 1 20 4.444v12.778A2.781 2.781 0 0 1 17.222 20zM1.111 7.222v10a1.669 1.669 0 0 0 1.667 1.667h14.444a1.669 1.669 0 0 0 1.667-1.667v-10zm1.667-4.445a1.669 1.669 0 0 0-1.667 1.667v1.667h17.777V4.444a1.668 1.668 0 0 0-1.667-1.666h-1.666v1.111h-1.111V2.778H5.556v1.11H4.445V2.777z" fill="#ED1C24" transform="translate(-18924.5 -19584)"/>
    </g>
</svg>
