<?xml version="1.0" encoding="UTF-8"?>
<svg id="Layer_1" xmlns="http://www.w3.org/2000/svg" version="1.1" viewBox="0 0 500 500">
  <!-- Generator: Adobe Illustrator 29.8.2, SVG Export Plug-In . SVG Version: 2.1.1 Build 3)  -->
  <defs>
    <style>
      .st0 {
        fill: #1d1d1b;
      }
    </style>
  </defs>
  <path class="st0" d="M108.64,260.39v25.61c0,4.76,3.85,8.62,8.62,8.62h45.73c4.76,0,8.62-3.85,8.62-8.62v-25.61c0-4.76-3.85-8.62-8.62-8.62h-45.73c-4.76,0-8.62,3.85-8.62,8.62ZM125.89,269.02h28.48v8.36h-28.48v-8.36Z"/>
  <path class="st0" d="M87.23,178.29c-2.91-3.2-7.85-3.44-11.05-.53l-18.78,17.06c-3.2,2.91-3.44,7.85-.53,11.05l6.7,7.37c2.91,3.2,7.85,3.44,11.05.53l18.78-17.06c3.2-2.91,3.44-7.85.53-11.05l-6.7-7.37Z"/>
  <path class="st0" d="M133.73,349.95h-20.12c-4.76,0-8.62,3.85-8.62,8.62s3.85,8.62,8.62,8.62h20.12c4.76,0,8.62-3.85,8.62-8.62s-3.85-8.62-8.62-8.62Z"/>
  <path class="st0" d="M197.14,343.76h46.96c4.76,0,8.62-3.85,8.62-8.62s-3.85-8.62-8.62-8.62h-46.96c-4.76,0-8.62,3.85-8.62,8.62s3.85,8.62,8.62,8.62Z"/>
  <path class="st0" d="M136.72,154.84c-2.39-2.54-6.44-2.66-8.98-.24l-15.3,14.48c-2.54,2.4-2.66,6.44-.24,8.98,1.24,1.32,2.93,1.99,4.61,1.99,1.56,0,3.14-.59,4.37-1.75l15.3-14.48c2.54-2.4,2.66-6.44.24-8.98Z"/>
  <path class="st0" d="M124.45,180.83c-2.62,2.33-2.85,6.35-.52,8.97,1.25,1.41,3,2.13,4.74,2.13,1.51,0,3.01-.53,4.23-1.62l34.11-30.43c2.62-2.33,2.85-6.35.52-8.97-2.35-2.64-6.36-2.86-8.97-.52l-34.11,30.43h0Z"/>
  <path class="st0" d="M152.64,179.48l-15.32,14.48c-2.55,2.41-2.67,6.44-.26,8.98,1.25,1.32,2.94,2,4.62,2,1.56,0,3.14-.59,4.36-1.74l15.32-14.48c2.55-2.41,2.67-6.44.26-8.98-2.41-2.56-6.46-2.66-8.98-.26Z"/>
  <path class="st0" d="M145.86,150.98c1.44,0,2.89-.48,4.08-1.49l5.14-4.31c2.69-2.25,3.04-6.25.78-8.95s-6.23-3.04-8.95-.78l-5.14,4.31c-2.69,2.25-3.04,6.25-.78,8.95,1.25,1.49,3.06,2.28,4.86,2.28Z"/>
  <path class="st0" d="M161.7,77.17c-3.29-3.75-9.01-4.09-12.72-.74L21.59,191.47c-4.76,4.24-5.27,11.64-1.1,16.48l47.3,54.98v111.17c0,9.32,7.56,16.88,16.88,16.88h211.88c26.04,29.12,51.49,31.26,57.97,31.26.83,0,1.35-.03,1.52-.05,4.7-.36,8.2-4.43,7.91-9.14-.3-4.7-4.45-8.17-9.11-8.06-.93.05-15.44.46-33.54-14.02-5.35-4.28-11-9.9-16.73-17.2-4.93-6.29-9.9-13.72-14.75-22.79l-38.07-71.31c-7.81-14.63-15.68-29.38-23.05-43.19-3.15-5.91-6.17-11.56-9.09-17.03-6.37-11.92-12.1-22.64-16.72-31.26-1.61-3-3.09-5.77-4.4-8.22-.49-.92-.68-1.89-.9-2.86-1-4.45.63-9.16,4.66-11.84,2.66-1.76,5.81-2.35,8.91-1.6.38.09.66.34,1.02.47,2.6.9,4.84,2.52,6.21,4.92l2.02,3.6,26.33,46.78,9.57,16.99,4.51,8c.36,1.02.86,1.95,1.54,2.74l18.47,32.83c2.35,4.14,7.57,5.63,11.74,3.29,4.15-2.33,5.62-7.59,3.29-11.74l-18.89-33.57c-.1-.56-.09-1.03-.15-1.58-1.44-11.69,5.96-15.98,7.42-16.65.44-.17.8-.17,1.22-.31h8.95c6.2,2.3,9.73,8.85,10.69,10.93l3.13,5.99,18.21,34.86c1.15,2.21,3.21,3.4,5.43,4.02.75.21,1.45.61,2.23.61,1.35,0,2.71-.31,3.98-.98,4.22-2.21,5.85-7.42,3.66-11.64l-5.86-11.21s-.86-1.54-1.23-2.4c-5.62-13.03,6.54-19.39,8.14-20.12,1.46-.59,2.83-.89,4.13-1.05,10.1-1.24,15.46,8.96,16.58,11.35l2.95,6.28,4.84,10.29,1.95,4.16c1.46,3.13,4.56,4.96,7.81,4.96,1.23,0,2.47-.26,3.67-.83,4.31-2.02,6.15-7.15,4.13-11.46l-5.65-11.99c-2.28-5.56-1.3-11.46,6.17-15.87,12.25-6.37,21.03,9.32,22.36,12.19l27.24,54.95c7.61,15.36,11.35,31.32,10.77,46.15-.39,9.99-2.32,18.8-5.78,26.17-1.07,2.28-1.08,4.91-.06,7.2l21.96,48.77c1.43,3.2,4.58,5.08,7.86,5.08,1.2,0,2.39-.24,3.54-.76,4.35-1.95,6.28-7.06,4.32-11.41h-.01s-20.4-45.31-20.4-45.31c3.41-8.6,5.37-18.36,5.79-29.09.66-17.71-3.69-36.54-12.57-54.48l-27.1-54.64c-4.76-10.62-19.8-28.3-42.89-19.07-3.83,1.58-8.82,5.17-12.69,10.69-7.53-8.12-19.52-14.63-35.48-8.27-2.52,1.03-5.47,3.18-8.37,5.91-1.99,1.87-4,3.89-5.62,6.6l-1.66-3.17c-.48-1.07-1.14-2.24-1.82-3.41-6.12-10.52-20.31-23.92-41.06-15.66-4.06,1.68-9.47,5.58-13.42,11.69l-30.91-54.91c-1.3-2.29-3-4.28-4.85-6.11-.46-1.06-.94-2.12-1.7-3l-65.13-74.32ZM231.31,278h-34.17c-4.76,0-8.62,3.85-8.62,8.62s3.85,8.62,8.62,8.62h43.37l4.1,7.69c-.18-.01-.33-.1-.52-.1h-46.96c-4.76,0-8.62,3.85-8.62,8.62s3.85,8.62,8.62,8.62h46.96c3.18,0,5.84-1.81,7.34-4.37l23.17,43.42c2.89,5.39,5.84,10.18,8.82,14.68l-198.41.29-.25-92.4-.05-17.21-.07-27.8,46-.07,17.63-.02,60.88-.09c6.98,13.06,14.53,27.23,22.14,41.48h.01ZM200.06,219.45h-32.42l22-19.51c3.12,5.82,6.6,12.34,10.43,19.51ZM155.81,87.44l51.01,58.86c-5.01.3-9.92,1.78-14.17,4.61h.01c-12.33,8.21-16.36,24.2-9.38,37.2.18.36.43.79.62,1.15l-33.93,30.18h-65.32c-9.31,0-16.88,7.57-16.88,16.88v8.57l-38.46-44.46,126.5-112.98Z"/>
</svg>