<svg xmlns="http://www.w3.org/2000/svg" width="24" height="24" viewBox="0 0 24 24">
    <g id="Group_741" data-name="Group 741" transform="translate(-1155 -930)">
        <g id="Ellipse_12" fill="none" stroke="#1D1D1B" data-name="Ellipse 12" transform="translate(1155 930)">
            <circle cx="12" cy="12" r="12" stroke="none"/>
            <circle cx="12" cy="12" r="11.5" fill="none"/>
        </g>
        <g id="Iconografia_Erro" fill="#1D1D1B" stroke="#1D1D1B" stroke-miterlimit="10" data-name="Iconografia / Erro" transform="rotate(-45 1717.938 -931.28)">
            <path id="Rectangle_Copy" d="M.472 7.943a.257.257 0 0 1-.324 0 .273.273 0 0 1 0-.342L7.654.069a.235.235 0 0 1 .332 0 .236.236 0 0 1 0 .334z" data-name="Rectangle Copy" transform="translate(-.056)"/>
            <path id="Rectangle_Copy_2" d="M.385 7.924a.259.259 0 0 1-.325 0 .271.271 0 0 1 0-.341L7.584.069a.236.236 0 0 1 .333 0 .235.235 0 0 1 0 .333z" data-name="Rectangle Copy 2" transform="rotate(-90 3.996 3.996)"/>
        </g>
    </g>
</svg>
