<svg xmlns="http://www.w3.org/2000/svg" viewBox="0 0 91.134 37.134">
  <g>
    <circle cx="21.827" cy="18.213" r="15.165" fill="#fff"/>
    <g>
      <g>
        <path d="M8.334,20.549V15.877h.912v3.858h2.119v.814Z"/>
        <path d="M12.11,20.549V15.877h.913v4.672Z"/>
        <path d="M15.814,20.549h-.683l-1.542-4.672h.945l.938,3.045.938-3.045h.951Z"/>
        <path d="M20.41,20.549,19.5,18.685h-.655v1.864h-.912V15.877h1.83a1.411,1.411,0,0,1,1.515,1.43,1.257,1.257,0,0,1-.852,1.227l1.043,2.015ZM19.7,16.69h-.859v1.234H19.7a.619.619,0,1,0,0-1.234Z"/>
        <path d="M24.975,20.1a1.831,1.831,0,0,1-2.5,0c-.466-.465-.473-.99-.473-1.882s.007-1.417.473-1.883a1.834,1.834,0,0,1,2.5,0c.466.466.478.99.478,1.883S25.441,19.63,24.975,20.1ZM24.312,16.9a.76.76,0,0,0-.584-.249.786.786,0,0,0-.59.249c-.171.2-.224.42-.224,1.313s.053,1.109.224,1.3a.784.784,0,0,0,.59.256.758.758,0,0,0,.584-.256c.171-.2.23-.413.23-1.3S24.483,17.1,24.312,16.9Z"/>
        <path d="M31.011,19.866a1.59,1.59,0,0,1-1.411.683H27.914V15.877H29.6a1.589,1.589,0,0,1,1.411.682,2.7,2.7,0,0,1,.3,1.654A2.7,2.7,0,0,1,31.011,19.866ZM30.2,16.979a.812.812,0,0,0-.681-.289h-.7v3.045h.7a.812.812,0,0,0,.681-.289c.171-.2.191-.5.191-1.233S30.374,17.182,30.2,16.979Z"/>
        <path d="M32.242,20.549V15.877h3.077v.813H33.154v1.1H35V18.6H33.154v1.135h2.165v.814Z"/>
      </g>
      <g>
        <path d="M40.439,20.549l-.913-1.864h-.655v1.864h-.912V15.877h1.83a1.412,1.412,0,0,1,1.516,1.43,1.258,1.258,0,0,1-.853,1.227L41.5,20.549Zm-.708-3.859h-.86v1.234h.86a.619.619,0,1,0,0-1.234Z" fill="#fff"/>
        <path d="M42.255,20.549V15.877h3.077v.813H43.167v1.1h1.844V18.6H43.167v1.135h2.165v.814Z" fill="#fff"/>
        <path d="M47.8,20.588a1.685,1.685,0,0,1-1.253-.493c-.466-.465-.473-.99-.473-1.882s.007-1.417.473-1.883a1.684,1.684,0,0,1,1.253-.492,1.646,1.646,0,0,1,1.713,1.476h-.932a.766.766,0,0,0-.781-.663.756.756,0,0,0-.584.243c-.17.2-.229.426-.229,1.319s.059,1.122.229,1.319a.758.758,0,0,0,.584.242.773.773,0,0,0,.788-.662h.925A1.649,1.649,0,0,1,47.8,20.588Z" fill="#fff"/>
        <path d="M50.3,20.549V15.877h.912v3.858h2.119v.814Z" fill="#fff"/>
        <path d="M56.735,20.549l-.275-.828H54.8l-.282.828h-.951l1.7-4.672h.715l1.706,4.672Zm-1.089-3.294-.59,1.7h1.161Z" fill="#fff"/>
        <path d="M61.588,20.549V17.826L60.7,19.6h-.617l-.9-1.771v2.723h-.912V15.877h.9L60.388,18.4,61.6,15.877h.9v4.672Z" fill="#fff"/>
        <path d="M66.252,20.549l-.275-.828h-1.66l-.283.828h-.951l1.7-4.672H65.5L67.2,20.549Zm-1.09-3.294-.59,1.7h1.161Z" fill="#fff"/>
        <path d="M69.287,20.588a1.688,1.688,0,0,1-1.253-.493c-.466-.465-.472-.99-.472-1.882s.006-1.417.472-1.883a1.687,1.687,0,0,1,1.253-.492A1.646,1.646,0,0,1,71,17.314h-.932a.765.765,0,0,0-.781-.663.756.756,0,0,0-.584.243c-.17.2-.229.426-.229,1.319s.059,1.122.229,1.319a.758.758,0,0,0,.584.242.773.773,0,0,0,.788-.662H71A1.649,1.649,0,0,1,69.287,20.588Zm.086,1.312h-.794l.452-.958h.63Z" fill="#fff"/>
        <path d="M74.541,20.1a1.66,1.66,0,0,1-1.247.493,1.677,1.677,0,0,1-1.253-.493c-.466-.465-.473-.99-.473-1.882s.007-1.417.473-1.883a1.676,1.676,0,0,1,1.253-.492,1.659,1.659,0,0,1,1.247.492c.466.466.479.99.479,1.883S75.007,19.63,74.541,20.1Zm-.807-4.73a.876.876,0,0,1-.511-.15.712.712,0,0,0-.368-.119.477.477,0,0,0-.38.191l-.368-.374a.974.974,0,0,1,.735-.388.869.869,0,0,1,.5.151.655.655,0,0,0,.361.119A.479.479,0,0,0,74.1,14.6l.381.374A1.009,1.009,0,0,1,73.734,15.365Zm.144,1.535a.76.76,0,0,0-.584-.249.786.786,0,0,0-.59.249c-.171.2-.223.42-.223,1.313s.052,1.109.223,1.3a.784.784,0,0,0,.59.256.758.758,0,0,0,.584-.256c.171-.2.23-.413.23-1.3S74.049,17.1,73.878,16.9Z" fill="#fff"/>
        <path d="M75.957,20.549V15.877h3.077v.813H76.869v1.1h1.844V18.6H76.869v1.135h2.165v.814Z" fill="#fff"/>
        <path d="M81.217,20.588a2.193,2.193,0,0,1-1.706-.617l.59-.59a1.53,1.53,0,0,0,1.122.393c.545,0,.834-.21.834-.584a.528.528,0,0,0-.145-.387.656.656,0,0,0-.42-.157l-.557-.086a1.544,1.544,0,0,1-.907-.386,1.231,1.231,0,0,1-.334-.919,1.439,1.439,0,0,1,1.627-1.417,2,2,0,0,1,1.509.545l-.577.57a1.291,1.291,0,0,0-.958-.321c-.485,0-.715.268-.715.59a.431.431,0,0,0,.131.334.753.753,0,0,0,.427.178l.557.085a1.489,1.489,0,0,1,.893.367,1.277,1.277,0,0,1,.36.985C82.948,20.076,82.2,20.588,81.217,20.588Z" fill="#fff"/>
      </g>
    </g>
  </g>
</svg>
