<svg xmlns="http://www.w3.org/2000/svg" width="100" height="21" viewBox="0 0 100 21">
    <defs>
        <style>
            .cls-1{fill:#fff}.cls-2,.cls-3{fill:#00468f}.cls-2,.cls-4{fill-rule:evenodd}.cls-4{fill:#ffd400}
        </style>
    </defs>
    <g id="Logo" transform="translate(-194 -20)">
        <g id="Logotipo_Carris_Fundo_Branco" data-name="Logotipo / Carris Fundo Branco" transform="translate(194 20)">
            <path id="Path_1089" d="M542.71 549.4a4.139 4.139 0 0 0 2.884-1.115l1.11 2.084a6.949 6.949 0 0 1-4.162 1.26 5.958 5.958 0 0 1-6.142-6.229c0-3.87 2.613-6.584 6.251-6.584a6.726 6.726 0 0 1 4.049 1.284l-1.11 2.087a3.987 3.987 0 0 0-2.781-1.137 4.186 4.186 0 0 0-.1 8.354m24.173-9.112a2.8 2.8 0 0 1 2.491-1.474 3.723 3.723 0 0 1 2.049.672l-1.129 2.19a1.936 1.936 0 0 0-1.423-.63c-1.779 0-1.946 1.893-1.946 3.43v6.839h-2.4v-12.163h2.362zm8.762 0a2.817 2.817 0 0 1 2.489-1.474 3.623 3.623 0 0 1 2.05.672l-1.131 2.19a1.88 1.88 0 0 0-1.4-.63c-1.779 0-1.966 1.893-1.966 3.43v6.839h-2.382v-12.163h2.34zm7.719-7.029a1.641 1.641 0 0 1 0 3.281 1.641 1.641 0 0 1 0-3.281m-1.2 5.894h2.388v12.161h-2.388zm11.337 8.774c0-2.652-5.458-1.79-5.458-5.722a3.445 3.445 0 0 1 3.682-3.391 4.2 4.2 0 0 1 3.534 1.83l-1.778 1.409a2.423 2.423 0 0 0-1.924-1.073 1.066 1.066 0 0 0-1.131 1.073c0 2.272 5.483 1.411 5.483 5.7 0 2.462-1.841 3.871-4.162 3.871a4.669 4.669 0 0 1-4.352-2.695l1.968-1.26a2.8 2.8 0 0 0 2.465 1.809 1.481 1.481 0 0 0 1.675-1.555m31.473 2.673a6.3 6.3 0 0 0 1.987.357 6.226 6.226 0 0 0 0-12.437 6.024 6.024 0 0 0-1.987.358 9.609 9.609 0 0 1 1.987 5.889 9.4 9.4 0 0 1-1.987 5.833m1.987-15.363A9.51 9.51 0 1 1 622.258 553a9.41 9.41 0 0 1-14.112-8.231 9.439 9.439 0 0 1 9.408-9.53 9.141 9.141 0 0 1 4.7 1.261 9.155 9.155 0 0 1 4.707-1.261m-7.424 3.641a5.785 5.785 0 0 1 2.717 2.04 5.687 5.687 0 0 1 2.72-2.04 9.566 9.566 0 0 0-2.72-2.38 9.572 9.572 0 0 0-2.717 2.38m0 11.722a9.4 9.4 0 0 1-1.987-5.833 9.608 9.608 0 0 1 1.987-5.889 6.029 6.029 0 0 0-1.987-.358 6.226 6.226 0 0 0 0 12.437 6.206 6.206 0 0 0 1.987-.357m2.717-2.042a5.608 5.608 0 0 1-2.717 2.042 9.071 9.071 0 0 0 2.717 2.4 9.593 9.593 0 0 0 2.72-2.4 5.62 5.62 0 0 1-2.72-2.042m0-7.639a6.629 6.629 0 0 0-1.191 3.808 6.551 6.551 0 0 0 1.191 3.831 6.389 6.389 0 0 0 1.194-3.831 6.462 6.462 0 0 0-1.194-3.808m-67.733-2.1a4.874 4.874 0 0 1 3.661 1.874v-1.535h2.363v12.161h-2.363v-1.474a5.22 5.22 0 0 1-3.661 1.789h-.481c-3.491 0-5.728-2.945-5.728-6.4 0-3.41 2.279-6.419 5.959-6.419zm0 10.586c2.407-.02 3.746-2 3.746-4.273a3.765 3.765 0 1 0-7.51-.044c0 2.36 1.34 4.316 3.7 4.316z" class="cls-1" data-name="Path 1089" transform="translate(-536.397 -533.262)"/>
            <path id="Path_1090" d="M542.71 560.793a4.186 4.186 0 0 1 .1-8.354 3.99 3.99 0 0 1 2.782 1.137l1.11-2.087a6.73 6.73 0 0 0-4.057-1.281c-3.639 0-6.252 2.714-6.252 6.584a5.958 5.958 0 0 0 6.146 6.231 6.952 6.952 0 0 0 4.162-1.26l-1.11-2.084a4.142 4.142 0 0 1-2.884 1.115" class="cls-2" data-name="Path 1090" transform="translate(-536.396 -544.651)"/>
            <path id="Path_1091" d="M625.084 551.68v-1.135h-2.363v12.161h2.405v-6.838c0-1.537.166-3.43 1.946-3.43a1.926 1.926 0 0 1 1.421.631l1.13-2.189a3.716 3.716 0 0 0-2.05-.674 2.731 2.731 0 0 0-2.467 1.474z" class="cls-2" data-name="Path 1091" transform="translate(-594.597 -544.651)"/>
            <path id="Path_1092" d="M652.027 551.68v-1.135h-2.341v12.161h2.382v-6.838c0-1.537.187-3.43 1.965-3.43a1.871 1.871 0 0 1 1.4.631l1.131-2.189a3.615 3.615 0 0 0-2.051-.674 2.756 2.756 0 0 0-2.466 1.474z" class="cls-2" data-name="Path 1092" transform="translate(-612.778 -544.651)"/>
            <path id="Path_1093" d="M677.271 533.261a1.641 1.641 0 0 1 0 3.281 1.641 1.641 0 0 1 0-3.281m-1.2 5.894h2.387v12.161h-2.387z" class="cls-3" data-name="Path 1093" transform="translate(-630.302 -533.261)"/>
            <path id="Path_1094" d="M699.049 559.319a1.481 1.481 0 0 1-1.675 1.557 2.8 2.8 0 0 1-2.465-1.81l-1.967 1.262a4.672 4.672 0 0 0 4.352 2.694c2.321 0 4.162-1.41 4.162-3.871 0-4.292-5.482-3.432-5.482-5.7a1.066 1.066 0 0 1 1.131-1.074 2.422 2.422 0 0 1 1.924 1.074l1.777-1.41a4.2 4.2 0 0 0-3.533-1.83 3.445 3.445 0 0 0-3.682 3.391c0 3.932 5.459 3.069 5.459 5.722" class="cls-2" data-name="Path 1094" transform="translate(-641.941 -544.651)"/>
            <path id="Path_1095" d="M768.021 554.657a6.2 6.2 0 0 1-1.986.357 6.227 6.227 0 0 1 0-12.439 6.042 6.042 0 0 1 1.986.361 9.559 9.559 0 0 1 2.717-2.38 9.131 9.131 0 0 0-4.7-1.262 9.511 9.511 0 0 0 0 19.022 9.33 9.33 0 0 0 4.7-1.261 9.063 9.063 0 0 1-2.717-2.4m2.717-9.681a5.685 5.685 0 0 1 2.72-2.041 9.613 9.613 0 0 1 1.987 5.888 9.4 9.4 0 0 1-1.987 5.834 5.631 5.631 0 0 1-2.72-2.04 6.7 6.7 0 0 0 0-7.641" class="cls-4" data-name="Path 1095" transform="translate(-684.877 -537.315)"/>
            <path id="Path_1096" d="M804.651 539.294a9.511 9.511 0 1 1-4.707 17.763 9.621 9.621 0 0 0 2.721-2.4 6.267 6.267 0 0 0 1.987.358 6.226 6.226 0 0 0 0-12.438 6.075 6.075 0 0 0-1.987.359 9.557 9.557 0 0 0-2.721-2.381 9.21 9.21 0 0 1 4.707-1.261" class="cls-2" data-name="Path 1096" transform="translate(-714.083 -537.316)"/>
            <path id="Path_1097" d="M790.21 552.443a5.78 5.78 0 0 0-2.717-2.041 9.615 9.615 0 0 0-1.986 5.888 9.4 9.4 0 0 0 1.986 5.834 5.612 5.612 0 0 0 2.717-2.04 6.726 6.726 0 0 1 0-7.641" class="cls-2" data-name="Path 1097" transform="translate(-704.349 -544.782)"/>
            <path id="Path_1098" d="M579.19 550.207a4.874 4.874 0 0 1 3.661 1.874v-1.535h2.363v12.161h-2.363v-1.474a5.22 5.22 0 0 1-3.661 1.789h-.481c-3.491 0-5.728-2.945-5.728-6.4 0-3.41 2.278-6.419 5.959-6.419zm0 10.586c2.407-.02 3.746-2 3.746-4.273a3.765 3.765 0 1 0-7.51-.044c0 2.36 1.34 4.316 3.7 4.316z" class="cls-3" data-name="Path 1098" transform="translate(-561.062 -544.651)"/>
        </g>
    </g>
</svg>
