<svg xmlns="http://www.w3.org/2000/svg" viewBox="0 0 30 30">
  <g>
    <path d="M3.058,11.493v1.141a.5.5,0,0,0,.5.5H6a.5.5,0,0,1,.5.5v.517a.5.5,0,0,1-.5.5H3.558a.5.5,0,0,0-.5.5v2.537a.5.5,0,0,1-.5.5h-.7a.5.5,0,0,1-.5-.5V9.975a.5.5,0,0,1,.5-.5H6.6a.5.5,0,0,1,.5.5v.518a.5.5,0,0,1-.5.5H3.558A.5.5,0,0,0,3.058,11.493Z"/>
    <path d="M11.354,18.188v-.551a1.939,1.939,0,0,1-1.567.613,2.2,2.2,0,0,1-1.627-.564,2.041,2.041,0,0,1-.527-1.432c0-1.015.7-1.847,2.2-1.847h1.481v-.319c0-.7-.343-1-1.187-1a1.413,1.413,0,0,0-1.224.551l-1-.991a2.67,2.67,0,0,1,2.288-.9c1.8,0,2.717.759,2.717,2.252v3.7a.5.5,0,0,1-.5.5ZM11.317,15.5H10.105c-.636,0-.942.256-.942.734,0,.44.306.722.967.722a1.211,1.211,0,0,0,.942-.306.984.984,0,0,0,.245-.808Z"/>
    <path d="M18.108,20.025V18.548a.486.486,0,0,0-.69-.43,2.321,2.321,0,0,1-.864.143,2.116,2.116,0,0,1-1.542-.575,3.773,3.773,0,0,1-.661-2.692,3.741,3.741,0,0,1,.661-2.68,2.147,2.147,0,0,1,1.554-.575,1.914,1.914,0,0,1,1.579.673v-.6H19.2a.5.5,0,0,1,.5.5v7.713a.5.5,0,0,1-.5.5h-.591A.5.5,0,0,1,18.108,20.025ZM17.019,13.17c-.955,0-1.077.8-1.077,1.824s.122,1.836,1.077,1.836,1.089-.8,1.089-1.836S17.974,13.17,17.019,13.17Z"/>
    <path d="M21.423,12.252V9.975a.5.5,0,0,1,.5-.5h.665a.5.5,0,0,1,.5.5v.769a.5.5,0,0,1-.2.4Z"/>
    <path d="M25.939,18.261a3.48,3.48,0,0,1-2.717-.918l.726-.725a.488.488,0,0,1,.613-.069,2.531,2.531,0,0,0,1.4.354c.551,0,1.126-.184,1.126-.66,0-.319-.159-.539-.672-.588l-1.029-.1c-1.125-.11-1.835-.612-1.835-1.787,0-1.334,1.162-2.031,2.46-2.031a3.422,3.422,0,0,1,2.435.746l-.979.991a2.2,2.2,0,0,0-1.481-.428c-.636,0-.905.294-.905.612s.183.5.66.55l1,.1c1.26.122,1.9.783,1.9,1.872C28.644,17.588,27.444,18.261,25.939,18.261Z"/>
  </g>
</svg>
