<svg xmlns="http://www.w3.org/2000/svg" viewBox="0 0 30 30">
  <g>
    <path d="M23.15,21.358H20.315a.375.375,0,0,0-.375.375V23.15a.375.375,0,0,0,.375.375H23.15a.375.375,0,0,0,.375-.375V21.733A.375.375,0,0,0,23.15,21.358Zm-.375,1.417H20.69v-.667h2.085Z"/>
    <path d="M5.433,8.589a.5.5,0,0,0,.5-.5V4.654a.138.138,0,0,1,.138-.138H23.929a.138.138,0,0,1,.138.138V8.072a.5.5,0,0,0,1,0V4.654a1.139,1.139,0,0,0-1.138-1.138H6.071A1.139,1.139,0,0,0,4.933,4.654V8.089A.5.5,0,0,0,5.433,8.589Z"/>
    <path d="M23.525,9.685a.375.375,0,0,0-.375-.375H6.851a.375.375,0,0,0,0,.75h16.3A.375.375,0,0,0,23.525,9.685Z"/>
    <path d="M18.9,17.194H14.209a.375.375,0,0,0,0,.75H18.9a.375.375,0,0,0,0-.75Z"/>
    <path d="M11.1,7.538a.375.375,0,1,0,0,.75h10.63a.375.375,0,0,0,.375-.375V5.787a.375.375,0,0,0-.375-.375H8.268a.375.375,0,0,0-.375.375V7.913a.375.375,0,0,0,.375.375H9.685a.375.375,0,0,0,0-.75H8.643V6.162H21.358V7.538Z"/>
    <path d="M6.851,6.142A.355.355,0,1,0,6.5,5.787.355.355,0,0,0,6.851,6.142Z"/>
    <path d="M23.5,5.787a.355.355,0,1,0-.354.355A.355.355,0,0,0,23.5,5.787Z"/>
    <path d="M23.15,18.877H14.492a.375.375,0,0,0,0,.75h8.283v.688a.375.375,0,1,0,.75,0V19.252A.375.375,0,0,0,23.15,18.877Z"/>
    <path d="M19.273,23.15V21.733a.375.375,0,0,0-.75,0v1.042H16.476a.375.375,0,0,0,0,.75H18.9A.375.375,0,0,0,19.273,23.15Z"/>
    <path d="M4.933,13.729V17a.5.5,0,0,0,1,0V11.226a.5.5,0,1,0-1,0v1.5H4.161V10.322a.137.137,0,0,1,.138-.137H5.454a.5.5,0,0,0,0-1H4.3a1.14,1.14,0,0,0-1.138,1.137v2.907a.5.5,0,0,0,.5.5Z"/>
    <path d="M25.7,9.185H24.567a.5.5,0,0,0,0,1H25.7a.137.137,0,0,1,.137.137v2.407h-.771v-1.5a.5.5,0,1,0-1,0v5.968H20.315a.375.375,0,0,0,0,.75h3.752v5.985a.138.138,0,0,1-.138.138H17.114a.5.5,0,1,0,0,1h2.7v.918a.5.5,0,0,0,.5.5H23.15a.5.5,0,0,0,.5-.5v-.918h.279a1.139,1.139,0,0,0,1.138-1.138v-10.2h1.271a.5.5,0,0,0,.5-.5V10.322A1.139,1.139,0,0,0,25.7,9.185Zm-3.051,16.3H20.815v-.418H22.65Z"/>
    <path d="M16.867,14.778a.377.377,0,0,0,.266-.111l2.834-2.848a.375.375,0,1,0-.531-.53L16.6,14.138a.376.376,0,0,0,.265.64Z"/>
    <path d="M21.562,12.964,20.144,14.4a.375.375,0,0,0,.533.527L22.1,13.491a.375.375,0,0,0-.533-.527Z"/>
    <path d="M22.093,10.822a.375.375,0,0,0-.53,0L16.6,15.8a.375.375,0,0,0,0,.53.369.369,0,0,0,.264.11.373.373,0,0,0,.266-.111l4.961-4.974A.376.376,0,0,0,22.093,10.822Z"/>
    <path d="M7.413,12.9a1.483,1.483,0,1,0,1.476-1.49A1.482,1.482,0,0,0,7.413,12.9Z"/>
    <path d="M11.728,22.757c-.162-.3-.41-.263-.492.007A3.29,3.29,0,0,1,7.041,24.99a3.191,3.191,0,0,1-2.068-2.055A3.29,3.29,0,0,1,6.492,19.01a.476.476,0,0,0,.255-.416l0-.99c0-.106-.115-.076-.172-.056a4.583,4.583,0,1,0,5.6,6.4.377.377,0,0,0,0-.343Z"/>
    <path d="M13.559,20.608a.87.87,0,0,0-.778-.473l-2.544.013,0-.58,2.189-.011a.686.686,0,0,0,.65-.656.653.653,0,0,0-.657-.65l-1.319.006-.87,0-.01-1.968a1.306,1.306,0,0,0-2.611.013l.021,4.263A1.332,1.332,0,0,0,8.967,21.9l2.393-.011.9,0,1.761,3.42a.87.87,0,1,0,1.547-.8Z"/>
  </g>
</svg>
