<svg xmlns="http://www.w3.org/2000/svg" viewBox="0 0 30 30">
  <g>
    <path d="M27.385,11.478a.493.493,0,0,0-.232-.351L25.279,9.986a8.76,8.76,0,0,0,1.686-3.975,4.578,4.578,0,0,0-9.155,0,6.825,6.825,0,0,0,1.088,3l-2.267.945a4.668,4.668,0,0,1-3.57,0L10.527,8.9a5.694,5.694,0,0,0-4.367.017L3.207,10.449a.5.5,0,0,0-.261.362L.137,28.49a.5.5,0,0,0,.681.533L6.577,26.6a4.668,4.668,0,0,1,3.57,0l2.534,1.057a5.68,5.68,0,0,0,4.331,0L19.545,26.6a4.681,4.681,0,0,1,3.577,0l6.069,2.428a.485.485,0,0,0,.183.036.5.5,0,0,0,.49-.566Zm-5-7.756a1.717,1.717,0,1,1-1.717,1.717A1.716,1.716,0,0,1,22.388,3.722ZM23.5,25.682a5.668,5.668,0,0,0-4.331,0l-2.534,1.057a4.677,4.677,0,0,1-3.57,0l-2.534-1.057a5.673,5.673,0,0,0-4.332,0l-4.94,2.082L3.884,11.212l2.693-1.4a4.668,4.668,0,0,1,3.57,0l2.534,1.057a5.68,5.68,0,0,0,4.331,0l2.406-1a33.663,33.663,0,0,0,2.536,3.384.572.572,0,0,0,.867,0c.189-.219,1.029-1.21,1.9-2.448L26.44,11.85l2.321,15.939Z" fill="#231f20"/>
    <path d="M23.112,14.788l-8.427,1.017a.807.807,0,0,1,.413-1.432.567.567,0,0,1,.058,0h.012a.156.156,0,0,0,.137-.136l.192-1.682a.155.155,0,0,0-.137-.172L9.876,11.75H9.839a.156.156,0,0,0-.135.137L9.512,13.57l0,.009-3.349.4a.155.155,0,0,0-.136.172l.2,1.682a.156.156,0,0,0,.15.135.814.814,0,0,1,.192,1.6.155.155,0,0,0-.112.167l.644,5.336a.155.155,0,0,0,.172.136l4.631-.559.144,1.189a.8.8,0,0,0,.884.694L24.125,23.18a.8.8,0,0,0,.694-.884L24,15.482A.8.8,0,0,0,23.112,14.788ZM14.8,18.648l.77-.092a.283.283,0,0,1,.314.246l.111.92a.282.282,0,0,1-.247.314l-1.122.136Zm-4.692-6.429,4.92.562-.135,1.183a1.25,1.25,0,0,0-.9.853L13.86,14.8l-.049.437.135.015a1.245,1.245,0,0,0,.68,1.045l-.553,4.84-4.92-.562.553-4.841a1.243,1.243,0,0,0,.9-.858l.146.016.049-.437-.145-.016a1.245,1.245,0,0,0-.68-1.038Zm-2.6,10.517L6.924,17.9a1.255,1.255,0,0,0-.281-2.332L6.5,14.386l3.483-.421a.8.8,0,0,1,.229.646.815.815,0,0,1-.711.716l-.058.005H9.431a.154.154,0,0,0-.136.135l-.61,5.34a.155.155,0,0,0,.136.172l2.927.335.108.9Zm16.568.036L12.888,24.123a.385.385,0,0,1-.427-.335l-.292-2.425,2.137.244a.216.216,0,0,0,.036,0,.155.155,0,0,0,.135-.137l.141-1.233,1.138-.138a.345.345,0,0,0,.3-.385l-.111-.919a.346.346,0,0,0-.385-.3l-.755.091.276-2.411,8.078-.975a.382.382,0,0,1,.426.334l.823,6.814A.384.384,0,0,1,24.076,22.772Z" fill="#231f20"/>
    <path d="M23.056,17.758a.07.07,0,0,0-.078-.061l-4.25.513a.071.071,0,0,0,.017.14L23,17.837A.071.071,0,0,0,23.056,17.758Z" fill="#231f20"/>
    <path d="M18.886,19.518a.07.07,0,1,0,.017.139l4.25-.513a.07.07,0,0,0-.017-.139Z" fill="#231f20"/>
    <path d="M19.044,20.826a.07.07,0,1,0,.017.139l2.158-.26a.07.07,0,0,0,.061-.078.071.071,0,0,0-.078-.062Z" fill="#231f20"/>
    <rect x="12.974" y="14.699" width="0.44" height="0.497" transform="translate(-3.135 26.387) rotate(-83.58)" fill="#231f20"/>
    <rect x="12.085" y="14.599" width="0.44" height="0.497" transform="translate(-3.826 25.413) rotate(-83.575)" fill="#231f20"/>
    <rect x="11.196" y="14.498" width="0.44" height="0.497" transform="translate(-4.517 24.439) rotate(-83.568)" fill="#231f20"/>
    <rect x="7.774" y="16.367" width="0.458" height="0.439" transform="translate(-1.929 1.078) rotate(-6.879)" fill="#231f20"/>
    <rect x="8.594" y="16.268" width="0.459" height="0.439" transform="translate(-1.913 1.177) rotate(-6.885)" fill="#231f20"/>
  </g>
</svg>
