<svg xmlns="http://www.w3.org/2000/svg" id="Group_541" width="18" height="18" data-name="Group 541" viewBox="0 0 18 18">
    <g id="Group_545" data-name="Group 545">
        <path id="Path_1179" d="M9 16.481A7.48 7.48 0 1 1 16.479 9 7.479 7.479 0 0 1 9 16.481M9 0a9 9 0 1 1-9 9 9 9 0 0 1 9-9zm0 3.042a.76.76 0 0 0-.76.762v5.189a.76.76 0 0 0 .222.546l3.675 3.674a.759.759 0 0 0 1.075 0 .76.76 0 0 0 0-1.075L9.76 8.688V3.8A.76.76 0 0 0 9 3.042z" fill="#1D1D1B" fill-rule="evenodd" data-name="Path 1179"/>
    </g>
</svg>
