<svg xmlns="http://www.w3.org/2000/svg" width="18" height="12.627" viewBox="0 0 18 12.627">
    <defs>
        <style>
            .cls-1{fill:#fff}
        </style>
    </defs>
    <path id="y" d="M9.684 12.627l-3.4-.036-1.334-.036c-.2 0-.486-.012-.864-.036l-.342-.019a19.677 19.677 0 0 1-.684-.036h-.018a5.481 5.481 0 0 1-1.242-.215 2.059 2.059 0 0 1-1.332-1.278A5.7 5.7 0 0 1 .18 9.909a7.998 7.998 0 0 1-.036-.432l-.018-.216A13.013 13.013 0 0 1 .054 8.4a7.195 7.195 0 0 1-.036-.615C.006 7.234 0 6.416 0 5.355c0-.2.012-.486.036-.864v-.054c.025-.459.049-.783.072-.99C.155 3 .2 2.653.252 2.421a3.313 3.313 0 0 1 .432-1.188A2.077 2.077 0 0 1 2.016.279C2.267.232 2.53.2 2.8.171S3.45.124 4 .1L5.508.045a144.6 144.6 0 0 1 2.7-.036C8.4 0 8.656 0 8.955 0s.654 0 1.053.009h.882c.318 0 .778.012 1.368.036.329 0 .8.012 1.386.036l.99.054c.435.025.747.049.954.072a2.329 2.329 0 0 1 1.584.81 1.9 1.9 0 0 1 .4.756c.123.419.205.725.252.936.012.089.025.232.036.414l.036.432a3.746 3.746 0 0 1 .036.432v.036a4.743 4.743 0 0 1 .036.486v.522H18v2.142l-.054 1.278c-.025.41-.049.7-.072.882a5.52 5.52 0 0 1-.342 1.62 2.173 2.173 0 0 1-1.656 1.4 5.953 5.953 0 0 1-.756.09c-.252.023-.635.047-1.17.072h-.05a2.96 2.96 0 0 1-.378.018l-1.116.036zM7.146 3.591v5.058l4.86-2.52z" class="cls-1"/>
</svg>
